%TF.GenerationSoftware,KiCad,Pcbnew,8.0.6*%
%TF.CreationDate,2024-10-18T13:49:23-03:00*%
%TF.ProjectId,Arduino-inductance-meter,41726475-696e-46f2-9d69-6e6475637461,rev?*%
%TF.SameCoordinates,Original*%
%TF.FileFunction,Copper,L1,Top*%
%TF.FilePolarity,Positive*%
%FSLAX46Y46*%
G04 Gerber Fmt 4.6, Leading zero omitted, Abs format (unit mm)*
G04 Created by KiCad (PCBNEW 8.0.6) date 2024-10-18 13:49:23*
%MOMM*%
%LPD*%
G01*
G04 APERTURE LIST*
G04 Aperture macros list*
%AMRoundRect*
0 Rectangle with rounded corners*
0 $1 Rounding radius*
0 $2 $3 $4 $5 $6 $7 $8 $9 X,Y pos of 4 corners*
0 Add a 4 corners polygon primitive as box body*
4,1,4,$2,$3,$4,$5,$6,$7,$8,$9,$2,$3,0*
0 Add four circle primitives for the rounded corners*
1,1,$1+$1,$2,$3*
1,1,$1+$1,$4,$5*
1,1,$1+$1,$6,$7*
1,1,$1+$1,$8,$9*
0 Add four rect primitives between the rounded corners*
20,1,$1+$1,$2,$3,$4,$5,0*
20,1,$1+$1,$4,$5,$6,$7,0*
20,1,$1+$1,$6,$7,$8,$9,0*
20,1,$1+$1,$8,$9,$2,$3,0*%
G04 Aperture macros list end*
%TA.AperFunction,ComponentPad*%
%ADD10R,1.600000X1.600000*%
%TD*%
%TA.AperFunction,ComponentPad*%
%ADD11O,1.600000X1.600000*%
%TD*%
%TA.AperFunction,ComponentPad*%
%ADD12C,2.400000*%
%TD*%
%TA.AperFunction,ComponentPad*%
%ADD13O,2.400000X2.400000*%
%TD*%
%TA.AperFunction,SMDPad,CuDef*%
%ADD14RoundRect,0.250000X0.250000X0.475000X-0.250000X0.475000X-0.250000X-0.475000X0.250000X-0.475000X0*%
%TD*%
%TA.AperFunction,ComponentPad*%
%ADD15R,1.700000X1.700000*%
%TD*%
%TA.AperFunction,ComponentPad*%
%ADD16O,1.700000X1.700000*%
%TD*%
%TA.AperFunction,SMDPad,CuDef*%
%ADD17RoundRect,0.250000X-0.250000X-0.475000X0.250000X-0.475000X0.250000X0.475000X-0.250000X0.475000X0*%
%TD*%
%TA.AperFunction,SMDPad,CuDef*%
%ADD18RoundRect,0.250000X0.262500X0.450000X-0.262500X0.450000X-0.262500X-0.450000X0.262500X-0.450000X0*%
%TD*%
%TA.AperFunction,ComponentPad*%
%ADD19C,1.600000*%
%TD*%
%TA.AperFunction,ComponentPad*%
%ADD20R,2.600000X2.600000*%
%TD*%
%TA.AperFunction,ComponentPad*%
%ADD21C,2.600000*%
%TD*%
%TA.AperFunction,ViaPad*%
%ADD22C,0.600000*%
%TD*%
%TA.AperFunction,Conductor*%
%ADD23C,0.500000*%
%TD*%
G04 APERTURE END LIST*
D10*
%TO.P,U2,1,GND*%
%TO.N,GND*%
X156580000Y-58050000D03*
D11*
%TO.P,U2,2,TR*%
%TO.N,TwoSix2*%
X156580000Y-60590000D03*
%TO.P,U2,3,Q*%
%TO.N,Net-(U2-Q)*%
X156580000Y-63130000D03*
%TO.P,U2,4,R*%
%TO.N,5VUSB*%
X156580000Y-65670000D03*
%TO.P,U2,5,CV*%
%TO.N,Net-(U2-CV)*%
X164200000Y-65670000D03*
%TO.P,U2,6,THR*%
%TO.N,TwoSix2*%
X164200000Y-63130000D03*
%TO.P,U2,7,DIS*%
%TO.N,Seven2*%
X164200000Y-60590000D03*
%TO.P,U2,8,VCC*%
%TO.N,5VUSB*%
X164200000Y-58050000D03*
%TD*%
D12*
%TO.P,R2,1*%
%TO.N,TwoSix2*%
X168200000Y-61500000D03*
D13*
%TO.P,R2,2*%
%TO.N,5VUSB*%
X180900000Y-61500000D03*
%TD*%
D14*
%TO.P,C4,1*%
%TO.N,GND*%
X169300000Y-65850000D03*
%TO.P,C4,2*%
%TO.N,Net-(U2-CV)*%
X167400000Y-65850000D03*
%TD*%
D15*
%TO.P,J5,1,Pin_1*%
%TO.N,GND*%
X161475000Y-72380000D03*
D16*
%TO.P,J5,2,Pin_2*%
%TO.N,Net-(J5-Pin_2)*%
X158935000Y-72380000D03*
%TD*%
D17*
%TO.P,C5,1*%
%TO.N,GND*%
X164300000Y-54850000D03*
%TO.P,C5,2*%
%TO.N,5VUSB*%
X166200000Y-54850000D03*
%TD*%
D18*
%TO.P,R1,1*%
%TO.N,Net-(U1-Q)*%
X117212500Y-63300000D03*
%TO.P,R1,2*%
%TO.N,Net-(J2-Pin_2)*%
X115387500Y-63300000D03*
%TD*%
D10*
%TO.P,C6,1*%
%TO.N,5VUSB*%
X161500000Y-52800000D03*
D19*
%TO.P,C6,2*%
%TO.N,GND*%
X159000000Y-52800000D03*
%TD*%
D10*
%TO.P,C3,1*%
%TO.N,5VUSB*%
X125100000Y-53000000D03*
D19*
%TO.P,C3,2*%
%TO.N,GND*%
X122600000Y-53000000D03*
%TD*%
D18*
%TO.P,R5,1*%
%TO.N,Net-(U2-Q)*%
X153412500Y-63150000D03*
%TO.P,R5,2*%
%TO.N,Net-(J5-Pin_2)*%
X151587500Y-63150000D03*
%TD*%
D20*
%TO.P,J3,1,Pin_1*%
%TO.N,Seven*%
X142945000Y-69400000D03*
D21*
%TO.P,J3,2,Pin_2*%
%TO.N,TwoSix*%
X137865000Y-69400000D03*
%TD*%
D14*
%TO.P,C1,1*%
%TO.N,GND*%
X132350000Y-65900000D03*
%TO.P,C1,2*%
%TO.N,Net-(U1-CV)*%
X130450000Y-65900000D03*
%TD*%
%TO.P,C2,1*%
%TO.N,GND*%
X129400000Y-55100000D03*
%TO.P,C2,2*%
%TO.N,5VUSB*%
X127500000Y-55100000D03*
%TD*%
D10*
%TO.P,U1,1,GND*%
%TO.N,GND*%
X119880000Y-58180000D03*
D11*
%TO.P,U1,2,TR*%
%TO.N,TwoSix*%
X119880000Y-60720000D03*
%TO.P,U1,3,Q*%
%TO.N,Net-(U1-Q)*%
X119880000Y-63260000D03*
%TO.P,U1,4,R*%
%TO.N,5VUSB*%
X119880000Y-65800000D03*
%TO.P,U1,5,CV*%
%TO.N,Net-(U1-CV)*%
X127500000Y-65800000D03*
%TO.P,U1,6,THR*%
%TO.N,TwoSix*%
X127500000Y-63260000D03*
%TO.P,U1,7,DIS*%
%TO.N,Seven*%
X127500000Y-60720000D03*
%TO.P,U1,8,VCC*%
%TO.N,5VUSB*%
X127500000Y-58180000D03*
%TD*%
D20*
%TO.P,J4,1,Pin_1*%
%TO.N,TwoSix2*%
X174005000Y-70450000D03*
D21*
%TO.P,J4,2,Pin_2*%
%TO.N,Seven2*%
X179085000Y-70450000D03*
%TD*%
D15*
%TO.P,J2,1,Pin_1*%
%TO.N,GND*%
X123725000Y-76000000D03*
D16*
%TO.P,J2,2,Pin_2*%
%TO.N,Net-(J2-Pin_2)*%
X121185000Y-76000000D03*
%TD*%
D15*
%TO.P,J1,1,Pin_1*%
%TO.N,5VUSB*%
X153340000Y-47000000D03*
D16*
%TO.P,J1,2,Pin_2*%
%TO.N,unconnected-(J1-Pin_2-Pad2)*%
X150800000Y-47000000D03*
%TO.P,J1,3,Pin_3*%
%TO.N,unconnected-(J1-Pin_3-Pad3)*%
X148260000Y-47000000D03*
%TO.P,J1,4,Pin_4*%
%TO.N,unconnected-(J1-Pin_4-Pad4)*%
X145720000Y-47000000D03*
%TO.P,J1,5,Pin_5*%
%TO.N,GND*%
X143180000Y-47000000D03*
%TD*%
D10*
%TO.P,D1,1,K*%
%TO.N,5VUSB*%
X175560000Y-57350000D03*
D11*
%TO.P,D1,2,A*%
%TO.N,Seven2*%
X167940000Y-57350000D03*
%TD*%
D12*
%TO.P,R3,1*%
%TO.N,Seven*%
X131500000Y-60200000D03*
D13*
%TO.P,R3,2*%
%TO.N,5VUSB*%
X144200000Y-60200000D03*
%TD*%
D12*
%TO.P,R4,1*%
%TO.N,GND*%
X115750000Y-71600000D03*
D13*
%TO.P,R4,2*%
%TO.N,TwoSix*%
X128450000Y-71600000D03*
%TD*%
D22*
%TO.N,GND*%
X130650000Y-55100000D03*
X169300000Y-67250000D03*
X132400000Y-67400000D03*
%TD*%
D23*
%TO.N,Net-(U1-CV)*%
X130350000Y-65800000D02*
X130450000Y-65900000D01*
X127500000Y-65800000D02*
X130350000Y-65800000D01*
%TO.N,GND*%
X164300000Y-54850000D02*
X161050000Y-54850000D01*
X169300000Y-67250000D02*
X169300000Y-67300000D01*
X132400000Y-67400000D02*
X132350000Y-67400000D01*
X130650000Y-55100000D02*
X130600000Y-55100000D01*
X129400000Y-55100000D02*
X130650000Y-55100000D01*
X169300000Y-65850000D02*
X169300000Y-67250000D01*
X132350000Y-65900000D02*
X132400000Y-67400000D01*
X161050000Y-54850000D02*
X159000000Y-52800000D01*
%TO.N,5VUSB*%
X142180000Y-58180000D02*
X127500000Y-58180000D01*
X173060000Y-54850000D02*
X175560000Y-57350000D01*
X166200000Y-54850000D02*
X166200000Y-56050000D01*
X125100000Y-53000000D02*
X125400000Y-53000000D01*
X166200000Y-54850000D02*
X173060000Y-54850000D01*
X149140000Y-51200000D02*
X126850000Y-51200000D01*
X144200000Y-60200000D02*
X142180000Y-58180000D01*
X166200000Y-56050000D02*
X164200000Y-58050000D01*
X153340000Y-47000000D02*
X149140000Y-51200000D01*
X155700000Y-47000000D02*
X161500000Y-52800000D01*
X176750000Y-57350000D02*
X180900000Y-61500000D01*
X153340000Y-47000000D02*
X155700000Y-47000000D01*
X126850000Y-51250000D02*
X125100000Y-53000000D01*
X164150000Y-52800000D02*
X166200000Y-54850000D01*
X126850000Y-51200000D02*
X126850000Y-51250000D01*
X127500000Y-58180000D02*
X127500000Y-55100000D01*
X161500000Y-52800000D02*
X164150000Y-52800000D01*
X125400000Y-53000000D02*
X127500000Y-55100000D01*
X175560000Y-57350000D02*
X176750000Y-57350000D01*
%TO.N,Net-(U2-CV)*%
X167220000Y-65670000D02*
X167400000Y-65850000D01*
X164200000Y-65670000D02*
X167220000Y-65670000D01*
%TO.N,Seven*%
X131500000Y-60200000D02*
X135150000Y-60200000D01*
X127500000Y-60720000D02*
X130980000Y-60720000D01*
X130980000Y-60720000D02*
X131500000Y-60200000D01*
X135150000Y-60200000D02*
X142945000Y-67995000D01*
X142945000Y-67995000D02*
X142945000Y-69400000D01*
%TO.N,Net-(J2-Pin_2)*%
X121185000Y-76000000D02*
X121185000Y-68981878D01*
X121185000Y-68981878D02*
X115503122Y-63300000D01*
X115503122Y-63300000D02*
X115387500Y-63300000D01*
%TO.N,TwoSix*%
X119880000Y-60720000D02*
X122800000Y-60720000D01*
X122800000Y-66100000D02*
X122800000Y-60720000D01*
X129891116Y-70158884D02*
X129891116Y-69958884D01*
X128450000Y-71600000D02*
X129891116Y-70158884D01*
X128332233Y-68400000D02*
X125100000Y-68400000D01*
X130650000Y-69400000D02*
X128450000Y-71600000D01*
X125100000Y-68400000D02*
X122800000Y-66100000D01*
X137865000Y-69400000D02*
X130650000Y-69400000D01*
X124960000Y-60720000D02*
X127500000Y-63260000D01*
X129891116Y-69958884D02*
X128332233Y-68400000D01*
X122800000Y-60720000D02*
X124960000Y-60720000D01*
%TO.N,Net-(J5-Pin_2)*%
X151587500Y-63150000D02*
X151587500Y-65032500D01*
X151587500Y-65032500D02*
X158935000Y-72380000D01*
%TO.N,Net-(U1-Q)*%
X117252500Y-63260000D02*
X117212500Y-63300000D01*
X119880000Y-63260000D02*
X117252500Y-63260000D01*
%TO.N,Net-(U2-Q)*%
X156580000Y-63130000D02*
X153432500Y-63130000D01*
X153432500Y-63130000D02*
X153412500Y-63150000D01*
%TO.N,Seven2*%
X179085000Y-70450000D02*
X179085000Y-68495000D01*
X179085000Y-68495000D02*
X167940000Y-57350000D01*
X167440000Y-57350000D02*
X167940000Y-57350000D01*
X164200000Y-60590000D02*
X167440000Y-57350000D01*
%TO.N,TwoSix2*%
X161660000Y-60590000D02*
X164200000Y-63130000D01*
X159750000Y-60640000D02*
X159700000Y-60590000D01*
X156580000Y-60590000D02*
X159700000Y-60590000D01*
X174005000Y-70450000D02*
X174005000Y-67305000D01*
X165830000Y-61500000D02*
X164200000Y-63130000D01*
X168200000Y-61500000D02*
X165830000Y-61500000D01*
X159700000Y-60590000D02*
X161660000Y-60590000D01*
X174005000Y-67305000D02*
X168200000Y-61500000D01*
%TD*%
M02*
