%TF.GenerationSoftware,KiCad,Pcbnew,8.0.6*%
%TF.CreationDate,2024-10-18T13:49:23-03:00*%
%TF.ProjectId,Arduino-inductance-meter,41726475-696e-46f2-9d69-6e6475637461,rev?*%
%TF.SameCoordinates,Original*%
%TF.FileFunction,Soldermask,Top*%
%TF.FilePolarity,Negative*%
%FSLAX46Y46*%
G04 Gerber Fmt 4.6, Leading zero omitted, Abs format (unit mm)*
G04 Created by KiCad (PCBNEW 8.0.6) date 2024-10-18 13:49:23*
%MOMM*%
%LPD*%
G01*
G04 APERTURE LIST*
G04 Aperture macros list*
%AMRoundRect*
0 Rectangle with rounded corners*
0 $1 Rounding radius*
0 $2 $3 $4 $5 $6 $7 $8 $9 X,Y pos of 4 corners*
0 Add a 4 corners polygon primitive as box body*
4,1,4,$2,$3,$4,$5,$6,$7,$8,$9,$2,$3,0*
0 Add four circle primitives for the rounded corners*
1,1,$1+$1,$2,$3*
1,1,$1+$1,$4,$5*
1,1,$1+$1,$6,$7*
1,1,$1+$1,$8,$9*
0 Add four rect primitives between the rounded corners*
20,1,$1+$1,$2,$3,$4,$5,0*
20,1,$1+$1,$4,$5,$6,$7,0*
20,1,$1+$1,$6,$7,$8,$9,0*
20,1,$1+$1,$8,$9,$2,$3,0*%
G04 Aperture macros list end*
%ADD10R,1.600000X1.600000*%
%ADD11O,1.600000X1.600000*%
%ADD12C,2.400000*%
%ADD13O,2.400000X2.400000*%
%ADD14RoundRect,0.250000X0.250000X0.475000X-0.250000X0.475000X-0.250000X-0.475000X0.250000X-0.475000X0*%
%ADD15R,1.700000X1.700000*%
%ADD16O,1.700000X1.700000*%
%ADD17RoundRect,0.250000X-0.250000X-0.475000X0.250000X-0.475000X0.250000X0.475000X-0.250000X0.475000X0*%
%ADD18RoundRect,0.250000X0.262500X0.450000X-0.262500X0.450000X-0.262500X-0.450000X0.262500X-0.450000X0*%
%ADD19C,1.600000*%
%ADD20R,2.600000X2.600000*%
%ADD21C,2.600000*%
G04 APERTURE END LIST*
D10*
%TO.C,U2*%
X156580000Y-58050000D03*
D11*
X156580000Y-60590000D03*
X156580000Y-63130000D03*
X156580000Y-65670000D03*
X164200000Y-65670000D03*
X164200000Y-63130000D03*
X164200000Y-60590000D03*
X164200000Y-58050000D03*
%TD*%
D12*
%TO.C,R2*%
X168200000Y-61500000D03*
D13*
X180900000Y-61500000D03*
%TD*%
D14*
%TO.C,C4*%
X169300000Y-65850000D03*
X167400000Y-65850000D03*
%TD*%
D15*
%TO.C,J5*%
X161475000Y-72380000D03*
D16*
X158935000Y-72380000D03*
%TD*%
D17*
%TO.C,C5*%
X164300000Y-54850000D03*
X166200000Y-54850000D03*
%TD*%
D18*
%TO.C,R1*%
X117212500Y-63300000D03*
X115387500Y-63300000D03*
%TD*%
D10*
%TO.C,C6*%
X161500000Y-52800000D03*
D19*
X159000000Y-52800000D03*
%TD*%
D10*
%TO.C,C3*%
X125100000Y-53000000D03*
D19*
X122600000Y-53000000D03*
%TD*%
D18*
%TO.C,R5*%
X153412500Y-63150000D03*
X151587500Y-63150000D03*
%TD*%
D20*
%TO.C,J3*%
X142945000Y-69400000D03*
D21*
X137865000Y-69400000D03*
%TD*%
D14*
%TO.C,C1*%
X132350000Y-65900000D03*
X130450000Y-65900000D03*
%TD*%
%TO.C,C2*%
X129400000Y-55100000D03*
X127500000Y-55100000D03*
%TD*%
D10*
%TO.C,U1*%
X119880000Y-58180000D03*
D11*
X119880000Y-60720000D03*
X119880000Y-63260000D03*
X119880000Y-65800000D03*
X127500000Y-65800000D03*
X127500000Y-63260000D03*
X127500000Y-60720000D03*
X127500000Y-58180000D03*
%TD*%
D20*
%TO.C,J4*%
X174005000Y-70450000D03*
D21*
X179085000Y-70450000D03*
%TD*%
D15*
%TO.C,J2*%
X123725000Y-76000000D03*
D16*
X121185000Y-76000000D03*
%TD*%
D15*
%TO.C,J1*%
X153340000Y-47000000D03*
D16*
X150800000Y-47000000D03*
X148260000Y-47000000D03*
X145720000Y-47000000D03*
X143180000Y-47000000D03*
%TD*%
D10*
%TO.C,D1*%
X175560000Y-57350000D03*
D11*
X167940000Y-57350000D03*
%TD*%
D12*
%TO.C,R3*%
X131500000Y-60200000D03*
D13*
X144200000Y-60200000D03*
%TD*%
D12*
%TO.C,R4*%
X115750000Y-71600000D03*
D13*
X128450000Y-71600000D03*
%TD*%
M02*
