%TF.GenerationSoftware,KiCad,Pcbnew,8.0.6*%
%TF.CreationDate,2024-10-18T13:49:23-03:00*%
%TF.ProjectId,Arduino-inductance-meter,41726475-696e-46f2-9d69-6e6475637461,rev?*%
%TF.SameCoordinates,Original*%
%TF.FileFunction,Legend,Top*%
%TF.FilePolarity,Positive*%
%FSLAX46Y46*%
G04 Gerber Fmt 4.6, Leading zero omitted, Abs format (unit mm)*
G04 Created by KiCad (PCBNEW 8.0.6) date 2024-10-18 13:49:23*
%MOMM*%
%LPD*%
G01*
G04 APERTURE LIST*
%ADD10C,0.187500*%
%ADD11C,0.125000*%
%ADD12C,0.100000*%
%ADD13C,0.150000*%
%ADD14C,0.120000*%
G04 APERTURE END LIST*
D10*
G36*
X115401607Y-75600670D02*
G01*
X115450994Y-75607729D01*
X115498441Y-75619492D01*
X115551344Y-75639164D01*
X115601605Y-75665240D01*
X115648092Y-75697055D01*
X115689460Y-75733942D01*
X115725710Y-75775902D01*
X115756840Y-75822933D01*
X115772330Y-75852086D01*
X115792334Y-75898099D01*
X115808200Y-75946379D01*
X115819926Y-75996926D01*
X115827514Y-76049740D01*
X115830963Y-76104820D01*
X115831193Y-76123684D01*
X115829012Y-76180253D01*
X115822469Y-76234555D01*
X115811564Y-76286590D01*
X115796297Y-76336359D01*
X115776667Y-76383860D01*
X115769155Y-76399190D01*
X115744171Y-76442641D01*
X115710443Y-76488104D01*
X115671782Y-76527933D01*
X115628190Y-76562128D01*
X115594033Y-76583105D01*
X115543599Y-76607468D01*
X115491458Y-76625847D01*
X115437610Y-76638243D01*
X115382057Y-76644654D01*
X115349546Y-76645631D01*
X115297296Y-76643210D01*
X115247159Y-76635945D01*
X115199133Y-76623838D01*
X115153220Y-76606888D01*
X115109420Y-76585095D01*
X115095289Y-76576755D01*
X115048932Y-76544107D01*
X115007740Y-76506644D01*
X114971715Y-76464365D01*
X114940855Y-76417272D01*
X114925540Y-76388199D01*
X114905951Y-76342922D01*
X114888220Y-76288861D01*
X114876005Y-76233467D01*
X114869925Y-76184927D01*
X114867969Y-76137117D01*
X115005408Y-76137117D01*
X115007799Y-76192612D01*
X115014972Y-76244303D01*
X115026928Y-76292189D01*
X115047588Y-76344631D01*
X115075134Y-76391594D01*
X115103349Y-76426545D01*
X115141820Y-76462486D01*
X115183778Y-76490991D01*
X115229221Y-76512060D01*
X115278151Y-76525693D01*
X115330567Y-76531889D01*
X115348813Y-76532302D01*
X115403361Y-76528550D01*
X115454166Y-76517293D01*
X115501226Y-76498531D01*
X115544543Y-76472264D01*
X115584116Y-76438493D01*
X115596475Y-76425568D01*
X115629511Y-76382400D01*
X115655712Y-76332947D01*
X115672325Y-76286934D01*
X115684191Y-76236557D01*
X115691311Y-76181814D01*
X115693684Y-76122707D01*
X115691697Y-76069932D01*
X115685737Y-76020172D01*
X115674059Y-75966996D01*
X115657191Y-75917758D01*
X115652163Y-75906064D01*
X115628990Y-75862390D01*
X115597155Y-75819498D01*
X115559215Y-75783212D01*
X115530530Y-75762693D01*
X115483941Y-75738017D01*
X115434299Y-75721417D01*
X115381605Y-75712893D01*
X115351011Y-75711646D01*
X115299280Y-75715098D01*
X115250330Y-75725454D01*
X115204162Y-75742713D01*
X115160777Y-75766876D01*
X115120173Y-75797942D01*
X115107257Y-75809832D01*
X115072644Y-75851180D01*
X115045193Y-75901767D01*
X115027787Y-75950980D01*
X115015354Y-76006610D01*
X115008988Y-76055733D01*
X115005806Y-76108963D01*
X115005408Y-76137117D01*
X114867969Y-76137117D01*
X114867899Y-76135408D01*
X114870002Y-76074107D01*
X114876310Y-76016232D01*
X114886824Y-75961785D01*
X114901543Y-75910765D01*
X114920468Y-75863172D01*
X114943599Y-75819006D01*
X114970935Y-75778267D01*
X115002477Y-75740956D01*
X115046517Y-75699864D01*
X115094373Y-75665736D01*
X115146046Y-75638574D01*
X115201535Y-75618376D01*
X115260840Y-75605143D01*
X115311032Y-75599571D01*
X115350279Y-75598318D01*
X115401607Y-75600670D01*
G37*
G36*
X116459141Y-76630000D02*
G01*
X116459141Y-76522777D01*
X116425029Y-76564528D01*
X116386624Y-76597641D01*
X116343925Y-76622116D01*
X116296933Y-76637953D01*
X116245648Y-76645151D01*
X116227599Y-76645631D01*
X116176620Y-76641519D01*
X116128462Y-76629185D01*
X116107187Y-76620718D01*
X116063717Y-76596489D01*
X116027431Y-76562844D01*
X116023900Y-76558192D01*
X115999645Y-76513472D01*
X115985799Y-76466113D01*
X115979891Y-76415054D01*
X115978294Y-76364404D01*
X115978227Y-76349853D01*
X115978227Y-75895317D01*
X116102058Y-75895317D01*
X116102058Y-76303203D01*
X116102657Y-76353115D01*
X116105319Y-76403976D01*
X116109630Y-76434849D01*
X116129271Y-76481082D01*
X116158967Y-76512030D01*
X116204222Y-76533946D01*
X116252512Y-76540118D01*
X116303041Y-76533839D01*
X116350672Y-76515002D01*
X116356803Y-76511542D01*
X116396320Y-76479961D01*
X116424629Y-76436218D01*
X116425924Y-76433140D01*
X116439050Y-76385478D01*
X116444929Y-76333626D01*
X116446196Y-76289281D01*
X116446196Y-75895317D01*
X116569783Y-75895317D01*
X116569783Y-76630000D01*
X116459141Y-76630000D01*
G37*
G36*
X117029692Y-76516671D02*
G01*
X117047522Y-76630000D01*
X116998063Y-76641723D01*
X116954221Y-76645631D01*
X116904448Y-76642084D01*
X116856913Y-76627979D01*
X116849685Y-76624138D01*
X116811866Y-76591718D01*
X116797418Y-76567229D01*
X116786724Y-76517137D01*
X116783232Y-76464720D01*
X116782519Y-76418974D01*
X116782519Y-75993014D01*
X116691660Y-75993014D01*
X116691660Y-75895317D01*
X116782519Y-75895317D01*
X116782519Y-75717997D01*
X116905373Y-75645212D01*
X116905373Y-75895317D01*
X117029692Y-75895317D01*
X117029692Y-75993014D01*
X116905373Y-75993014D01*
X116905373Y-76428988D01*
X116907612Y-76479685D01*
X116911723Y-76498597D01*
X116932972Y-76523265D01*
X116975471Y-76532302D01*
X117023489Y-76519464D01*
X117029692Y-76516671D01*
G37*
G36*
X117523610Y-75883511D02*
G01*
X117575998Y-75896734D01*
X117624045Y-75919403D01*
X117637613Y-75928046D01*
X117678905Y-75962135D01*
X117713328Y-76003952D01*
X117738436Y-76048194D01*
X117745568Y-76064333D01*
X117763160Y-76115125D01*
X117774995Y-76168584D01*
X117780681Y-76218341D01*
X117781960Y-76257041D01*
X117779442Y-76311934D01*
X117771885Y-76364019D01*
X117759292Y-76413295D01*
X117741660Y-76459762D01*
X117716231Y-76507017D01*
X117685006Y-76547664D01*
X117647984Y-76581704D01*
X117624912Y-76597759D01*
X117581273Y-76620900D01*
X117531289Y-76637730D01*
X117479731Y-76645210D01*
X117463956Y-76645631D01*
X117412271Y-76640629D01*
X117365355Y-76625622D01*
X117352826Y-76619497D01*
X117310665Y-76591991D01*
X117274212Y-76556026D01*
X117272226Y-76553551D01*
X117272226Y-76911367D01*
X117148639Y-76911367D01*
X117148639Y-76267299D01*
X117260502Y-76267299D01*
X117262503Y-76317737D01*
X117269894Y-76370026D01*
X117285010Y-76421142D01*
X117310519Y-76467626D01*
X117317411Y-76476371D01*
X117355469Y-76512048D01*
X117402732Y-76536032D01*
X117455652Y-76544026D01*
X117504782Y-76537181D01*
X117549285Y-76516644D01*
X117589160Y-76482417D01*
X117596580Y-76473928D01*
X117625034Y-76428413D01*
X117642509Y-76377736D01*
X117651764Y-76325505D01*
X117655213Y-76274875D01*
X117655443Y-76256796D01*
X117653425Y-76206788D01*
X117645970Y-76154695D01*
X117630724Y-76103404D01*
X117604996Y-76056212D01*
X117598046Y-76047236D01*
X117560107Y-76010399D01*
X117513250Y-75985637D01*
X117461025Y-75977383D01*
X117408924Y-75986156D01*
X117365265Y-76009359D01*
X117328991Y-76042641D01*
X117321318Y-76051632D01*
X117294711Y-76092955D01*
X117275706Y-76142674D01*
X117265313Y-76193065D01*
X117260740Y-76249884D01*
X117260502Y-76267299D01*
X117148639Y-76267299D01*
X117148639Y-75895317D01*
X117261235Y-75895317D01*
X117261235Y-75991793D01*
X117292536Y-75953760D01*
X117329701Y-75921394D01*
X117351116Y-75907773D01*
X117399161Y-75888573D01*
X117450975Y-75880371D01*
X117472749Y-75879685D01*
X117523610Y-75883511D01*
G37*
G36*
X118405268Y-76630000D02*
G01*
X118405268Y-76522777D01*
X118371156Y-76564528D01*
X118332751Y-76597641D01*
X118290052Y-76622116D01*
X118243060Y-76637953D01*
X118191775Y-76645151D01*
X118173726Y-76645631D01*
X118122747Y-76641519D01*
X118074589Y-76629185D01*
X118053314Y-76620718D01*
X118009844Y-76596489D01*
X117973558Y-76562844D01*
X117970027Y-76558192D01*
X117945772Y-76513472D01*
X117931926Y-76466113D01*
X117926018Y-76415054D01*
X117924421Y-76364404D01*
X117924354Y-76349853D01*
X117924354Y-75895317D01*
X118048185Y-75895317D01*
X118048185Y-76303203D01*
X118048784Y-76353115D01*
X118051446Y-76403976D01*
X118055757Y-76434849D01*
X118075398Y-76481082D01*
X118105094Y-76512030D01*
X118150349Y-76533946D01*
X118198639Y-76540118D01*
X118249168Y-76533839D01*
X118296799Y-76515002D01*
X118302930Y-76511542D01*
X118342447Y-76479961D01*
X118370756Y-76436218D01*
X118372051Y-76433140D01*
X118385177Y-76385478D01*
X118391056Y-76333626D01*
X118392323Y-76289281D01*
X118392323Y-75895317D01*
X118515910Y-75895317D01*
X118515910Y-76630000D01*
X118405268Y-76630000D01*
G37*
G36*
X118975819Y-76516671D02*
G01*
X118993649Y-76630000D01*
X118944190Y-76641723D01*
X118900348Y-76645631D01*
X118850575Y-76642084D01*
X118803040Y-76627979D01*
X118795812Y-76624138D01*
X118757993Y-76591718D01*
X118743545Y-76567229D01*
X118732851Y-76517137D01*
X118729359Y-76464720D01*
X118728646Y-76418974D01*
X118728646Y-75993014D01*
X118637787Y-75993014D01*
X118637787Y-75895317D01*
X118728646Y-75895317D01*
X118728646Y-75717997D01*
X118851500Y-75645212D01*
X118851500Y-75895317D01*
X118975819Y-75895317D01*
X118975819Y-75993014D01*
X118851500Y-75993014D01*
X118851500Y-76428988D01*
X118853739Y-76479685D01*
X118857850Y-76498597D01*
X118879099Y-76523265D01*
X118921598Y-76532302D01*
X118969616Y-76519464D01*
X118975819Y-76516671D01*
G37*
D11*
G36*
X126529832Y-76181395D02*
G01*
X126529832Y-76064159D01*
X126956280Y-76063426D01*
X126956280Y-76439316D01*
X126913020Y-76471556D01*
X126869152Y-76500103D01*
X126824677Y-76524958D01*
X126779593Y-76546118D01*
X126753558Y-76556552D01*
X126701062Y-76573649D01*
X126647862Y-76585861D01*
X126593961Y-76593189D01*
X126539357Y-76595631D01*
X126484706Y-76593390D01*
X126431944Y-76586667D01*
X126381071Y-76575461D01*
X126332087Y-76559773D01*
X126284992Y-76539603D01*
X126269713Y-76531884D01*
X126226371Y-76505886D01*
X126187201Y-76475887D01*
X126146778Y-76435831D01*
X126116650Y-76397163D01*
X126090696Y-76354493D01*
X126086775Y-76346992D01*
X126065775Y-76300658D01*
X126049120Y-76252332D01*
X126036810Y-76202015D01*
X126028844Y-76149705D01*
X126025223Y-76095403D01*
X126024982Y-76076859D01*
X126027137Y-76022134D01*
X126033603Y-75968782D01*
X126044379Y-75916804D01*
X126059466Y-75866200D01*
X126078863Y-75816970D01*
X126086287Y-75800865D01*
X126111257Y-75755106D01*
X126140005Y-75714002D01*
X126172531Y-75677552D01*
X126215254Y-75640908D01*
X126263119Y-75610600D01*
X126307669Y-75589434D01*
X126354676Y-75572647D01*
X126404138Y-75560239D01*
X126456055Y-75552210D01*
X126510429Y-75548561D01*
X126529099Y-75548318D01*
X126582375Y-75550501D01*
X126633025Y-75557049D01*
X126681049Y-75567964D01*
X126726448Y-75583244D01*
X126773148Y-75605074D01*
X126817923Y-75634450D01*
X126855208Y-75669216D01*
X126864933Y-75680697D01*
X126893994Y-75723473D01*
X126916071Y-75768293D01*
X126934283Y-75819103D01*
X126941137Y-75843607D01*
X126820969Y-75876580D01*
X126804054Y-75828225D01*
X126782639Y-75784296D01*
X126764549Y-75757390D01*
X126729708Y-75722668D01*
X126687392Y-75696371D01*
X126668562Y-75687780D01*
X126619744Y-75671855D01*
X126567079Y-75663280D01*
X126529832Y-75661646D01*
X126480401Y-75663888D01*
X126430054Y-75671635D01*
X126380238Y-75686548D01*
X126371807Y-75689979D01*
X126325405Y-75713735D01*
X126283275Y-75745130D01*
X126264096Y-75764473D01*
X126233978Y-75803312D01*
X126208306Y-75848566D01*
X126200837Y-75865589D01*
X126183954Y-75914102D01*
X126171894Y-75964630D01*
X126164658Y-76017172D01*
X126162247Y-76071730D01*
X126163878Y-76121458D01*
X126169905Y-76175524D01*
X126180374Y-76225336D01*
X126197776Y-76277054D01*
X126208653Y-76300830D01*
X126234481Y-76343908D01*
X126269815Y-76385292D01*
X126311796Y-76419179D01*
X126343475Y-76437606D01*
X126388492Y-76457161D01*
X126440778Y-76472481D01*
X126494803Y-76480731D01*
X126531786Y-76482302D01*
X126585548Y-76479011D01*
X126638451Y-76469136D01*
X126685330Y-76454620D01*
X126700802Y-76448597D01*
X126748487Y-76427102D01*
X126791904Y-76402465D01*
X126825854Y-76376789D01*
X126825854Y-76181395D01*
X126529832Y-76181395D01*
G37*
G36*
X127145568Y-76580000D02*
G01*
X127145568Y-75563949D01*
X127282100Y-75563949D01*
X127811130Y-76361646D01*
X127811130Y-75563949D01*
X127938869Y-75563949D01*
X127938869Y-76580000D01*
X127802337Y-76580000D01*
X127273307Y-75781570D01*
X127273307Y-76580000D01*
X127145568Y-76580000D01*
G37*
G36*
X128559307Y-75564865D02*
G01*
X128613154Y-75568085D01*
X128662651Y-75574382D01*
X128683321Y-75578604D01*
X128734879Y-75594317D01*
X128781476Y-75616423D01*
X128823112Y-75644921D01*
X128830844Y-75651388D01*
X128868244Y-75687704D01*
X128900575Y-75728752D01*
X128927839Y-75774532D01*
X128950034Y-75825045D01*
X128965452Y-75872656D01*
X128977082Y-75923166D01*
X128984926Y-75976574D01*
X128988983Y-76032880D01*
X128989602Y-76066357D01*
X128988316Y-76115744D01*
X128983698Y-76169096D01*
X128975722Y-76219151D01*
X128962735Y-76271521D01*
X128946543Y-76319370D01*
X128925696Y-76366826D01*
X128899294Y-76412084D01*
X128894103Y-76419532D01*
X128861645Y-76459992D01*
X128823925Y-76495917D01*
X128802512Y-76511856D01*
X128758602Y-76536383D01*
X128711988Y-76554300D01*
X128682100Y-76562658D01*
X128631258Y-76572531D01*
X128580730Y-76577950D01*
X128531748Y-76579932D01*
X128520411Y-76580000D01*
X128156978Y-76580000D01*
X128156978Y-76462763D01*
X128290334Y-76462763D01*
X128505268Y-76462763D01*
X128557922Y-76461275D01*
X128608449Y-76456133D01*
X128658000Y-76445113D01*
X128661584Y-76443956D01*
X128706770Y-76424555D01*
X128747651Y-76395170D01*
X128751953Y-76390956D01*
X128784537Y-76350198D01*
X128809216Y-76304629D01*
X128825715Y-76261507D01*
X128838584Y-76213033D01*
X128847242Y-76159111D01*
X128851401Y-76106606D01*
X128852337Y-76064403D01*
X128850508Y-76006763D01*
X128845021Y-75954379D01*
X128833997Y-75899906D01*
X128817993Y-75852585D01*
X128800314Y-75817718D01*
X128769410Y-75773722D01*
X128734952Y-75738729D01*
X128692496Y-75710407D01*
X128674284Y-75702191D01*
X128624962Y-75689391D01*
X128575890Y-75683668D01*
X128523576Y-75681370D01*
X128501849Y-75681186D01*
X128290334Y-75681186D01*
X128290334Y-76462763D01*
X128156978Y-76462763D01*
X128156978Y-75563949D01*
X128504047Y-75563949D01*
X128559307Y-75564865D01*
G37*
G36*
X164279832Y-72581395D02*
G01*
X164279832Y-72464159D01*
X164706280Y-72463426D01*
X164706280Y-72839316D01*
X164663020Y-72871556D01*
X164619152Y-72900103D01*
X164574677Y-72924958D01*
X164529593Y-72946118D01*
X164503558Y-72956552D01*
X164451062Y-72973649D01*
X164397862Y-72985861D01*
X164343961Y-72993189D01*
X164289357Y-72995631D01*
X164234706Y-72993390D01*
X164181944Y-72986667D01*
X164131071Y-72975461D01*
X164082087Y-72959773D01*
X164034992Y-72939603D01*
X164019713Y-72931884D01*
X163976371Y-72905886D01*
X163937201Y-72875887D01*
X163896778Y-72835831D01*
X163866650Y-72797163D01*
X163840696Y-72754493D01*
X163836775Y-72746992D01*
X163815775Y-72700658D01*
X163799120Y-72652332D01*
X163786810Y-72602015D01*
X163778844Y-72549705D01*
X163775223Y-72495403D01*
X163774982Y-72476859D01*
X163777137Y-72422134D01*
X163783603Y-72368782D01*
X163794379Y-72316804D01*
X163809466Y-72266200D01*
X163828863Y-72216970D01*
X163836287Y-72200865D01*
X163861257Y-72155106D01*
X163890005Y-72114002D01*
X163922531Y-72077552D01*
X163965254Y-72040908D01*
X164013119Y-72010600D01*
X164057669Y-71989434D01*
X164104676Y-71972647D01*
X164154138Y-71960239D01*
X164206055Y-71952210D01*
X164260429Y-71948561D01*
X164279099Y-71948318D01*
X164332375Y-71950501D01*
X164383025Y-71957049D01*
X164431049Y-71967964D01*
X164476448Y-71983244D01*
X164523148Y-72005074D01*
X164567923Y-72034450D01*
X164605208Y-72069216D01*
X164614933Y-72080697D01*
X164643994Y-72123473D01*
X164666071Y-72168293D01*
X164684283Y-72219103D01*
X164691137Y-72243607D01*
X164570969Y-72276580D01*
X164554054Y-72228225D01*
X164532639Y-72184296D01*
X164514549Y-72157390D01*
X164479708Y-72122668D01*
X164437392Y-72096371D01*
X164418562Y-72087780D01*
X164369744Y-72071855D01*
X164317079Y-72063280D01*
X164279832Y-72061646D01*
X164230401Y-72063888D01*
X164180054Y-72071635D01*
X164130238Y-72086548D01*
X164121807Y-72089979D01*
X164075405Y-72113735D01*
X164033275Y-72145130D01*
X164014096Y-72164473D01*
X163983978Y-72203312D01*
X163958306Y-72248566D01*
X163950837Y-72265589D01*
X163933954Y-72314102D01*
X163921894Y-72364630D01*
X163914658Y-72417172D01*
X163912247Y-72471730D01*
X163913878Y-72521458D01*
X163919905Y-72575524D01*
X163930374Y-72625336D01*
X163947776Y-72677054D01*
X163958653Y-72700830D01*
X163984481Y-72743908D01*
X164019815Y-72785292D01*
X164061796Y-72819179D01*
X164093475Y-72837606D01*
X164138492Y-72857161D01*
X164190778Y-72872481D01*
X164244803Y-72880731D01*
X164281786Y-72882302D01*
X164335548Y-72879011D01*
X164388451Y-72869136D01*
X164435330Y-72854620D01*
X164450802Y-72848597D01*
X164498487Y-72827102D01*
X164541904Y-72802465D01*
X164575854Y-72776789D01*
X164575854Y-72581395D01*
X164279832Y-72581395D01*
G37*
G36*
X164895568Y-72980000D02*
G01*
X164895568Y-71963949D01*
X165032100Y-71963949D01*
X165561130Y-72761646D01*
X165561130Y-71963949D01*
X165688869Y-71963949D01*
X165688869Y-72980000D01*
X165552337Y-72980000D01*
X165023307Y-72181570D01*
X165023307Y-72980000D01*
X164895568Y-72980000D01*
G37*
G36*
X166309307Y-71964865D02*
G01*
X166363154Y-71968085D01*
X166412651Y-71974382D01*
X166433321Y-71978604D01*
X166484879Y-71994317D01*
X166531476Y-72016423D01*
X166573112Y-72044921D01*
X166580844Y-72051388D01*
X166618244Y-72087704D01*
X166650575Y-72128752D01*
X166677839Y-72174532D01*
X166700034Y-72225045D01*
X166715452Y-72272656D01*
X166727082Y-72323166D01*
X166734926Y-72376574D01*
X166738983Y-72432880D01*
X166739602Y-72466357D01*
X166738316Y-72515744D01*
X166733698Y-72569096D01*
X166725722Y-72619151D01*
X166712735Y-72671521D01*
X166696543Y-72719370D01*
X166675696Y-72766826D01*
X166649294Y-72812084D01*
X166644103Y-72819532D01*
X166611645Y-72859992D01*
X166573925Y-72895917D01*
X166552512Y-72911856D01*
X166508602Y-72936383D01*
X166461988Y-72954300D01*
X166432100Y-72962658D01*
X166381258Y-72972531D01*
X166330730Y-72977950D01*
X166281748Y-72979932D01*
X166270411Y-72980000D01*
X165906978Y-72980000D01*
X165906978Y-72862763D01*
X166040334Y-72862763D01*
X166255268Y-72862763D01*
X166307922Y-72861275D01*
X166358449Y-72856133D01*
X166408000Y-72845113D01*
X166411584Y-72843956D01*
X166456770Y-72824555D01*
X166497651Y-72795170D01*
X166501953Y-72790956D01*
X166534537Y-72750198D01*
X166559216Y-72704629D01*
X166575715Y-72661507D01*
X166588584Y-72613033D01*
X166597242Y-72559111D01*
X166601401Y-72506606D01*
X166602337Y-72464403D01*
X166600508Y-72406763D01*
X166595021Y-72354379D01*
X166583997Y-72299906D01*
X166567993Y-72252585D01*
X166550314Y-72217718D01*
X166519410Y-72173722D01*
X166484952Y-72138729D01*
X166442496Y-72110407D01*
X166424284Y-72102191D01*
X166374962Y-72089391D01*
X166325890Y-72083668D01*
X166273576Y-72081370D01*
X166251849Y-72081186D01*
X166040334Y-72081186D01*
X166040334Y-72862763D01*
X165906978Y-72862763D01*
X165906978Y-71963949D01*
X166254047Y-71963949D01*
X166309307Y-71964865D01*
G37*
D12*
X142027693Y-49870038D02*
X141932455Y-49822419D01*
X141932455Y-49822419D02*
X141789598Y-49822419D01*
X141789598Y-49822419D02*
X141646741Y-49870038D01*
X141646741Y-49870038D02*
X141551503Y-49965276D01*
X141551503Y-49965276D02*
X141503884Y-50060514D01*
X141503884Y-50060514D02*
X141456265Y-50250990D01*
X141456265Y-50250990D02*
X141456265Y-50393847D01*
X141456265Y-50393847D02*
X141503884Y-50584323D01*
X141503884Y-50584323D02*
X141551503Y-50679561D01*
X141551503Y-50679561D02*
X141646741Y-50774800D01*
X141646741Y-50774800D02*
X141789598Y-50822419D01*
X141789598Y-50822419D02*
X141884836Y-50822419D01*
X141884836Y-50822419D02*
X142027693Y-50774800D01*
X142027693Y-50774800D02*
X142075312Y-50727180D01*
X142075312Y-50727180D02*
X142075312Y-50393847D01*
X142075312Y-50393847D02*
X141884836Y-50393847D01*
X142503884Y-50822419D02*
X142503884Y-49822419D01*
X142503884Y-49822419D02*
X143075312Y-50822419D01*
X143075312Y-50822419D02*
X143075312Y-49822419D01*
X143551503Y-50822419D02*
X143551503Y-49822419D01*
X143551503Y-49822419D02*
X143789598Y-49822419D01*
X143789598Y-49822419D02*
X143932455Y-49870038D01*
X143932455Y-49870038D02*
X144027693Y-49965276D01*
X144027693Y-49965276D02*
X144075312Y-50060514D01*
X144075312Y-50060514D02*
X144122931Y-50250990D01*
X144122931Y-50250990D02*
X144122931Y-50393847D01*
X144122931Y-50393847D02*
X144075312Y-50584323D01*
X144075312Y-50584323D02*
X144027693Y-50679561D01*
X144027693Y-50679561D02*
X143932455Y-50774800D01*
X143932455Y-50774800D02*
X143789598Y-50822419D01*
X143789598Y-50822419D02*
X143551503Y-50822419D01*
D11*
G36*
X139246228Y-76981566D02*
G01*
X139295253Y-76991217D01*
X139339078Y-77014653D01*
X139377704Y-77051877D01*
X139391271Y-77070779D01*
X139412978Y-77116116D01*
X139426036Y-77164026D01*
X139433554Y-77219627D01*
X139435589Y-77273405D01*
X139435534Y-77281900D01*
X139432048Y-77337534D01*
X139423139Y-77386459D01*
X139406316Y-77434159D01*
X139378925Y-77477348D01*
X139341124Y-77512510D01*
X139294034Y-77536147D01*
X139241172Y-77544026D01*
X139236170Y-77543958D01*
X139183893Y-77534203D01*
X139140726Y-77511009D01*
X139101709Y-77474173D01*
X139094552Y-77465161D01*
X139068058Y-77417692D01*
X139052357Y-77365993D01*
X139044680Y-77313418D01*
X139042602Y-77262903D01*
X139042818Y-77244952D01*
X139046052Y-77194774D01*
X139054731Y-77143201D01*
X139071118Y-77093448D01*
X139097801Y-77049190D01*
X139101293Y-77045013D01*
X139139122Y-77010532D01*
X139186850Y-76987921D01*
X139235799Y-76981290D01*
X139246228Y-76981566D01*
G37*
G36*
X141918817Y-76981909D02*
G01*
X141971215Y-76992900D01*
X142017745Y-77017629D01*
X142054605Y-77051632D01*
X142062058Y-77060654D01*
X142089647Y-77107675D01*
X142105996Y-77158294D01*
X142113991Y-77209398D01*
X142116154Y-77258262D01*
X142115916Y-77276047D01*
X142112338Y-77325932D01*
X142102738Y-77377556D01*
X142084610Y-77427881D01*
X142055094Y-77473440D01*
X142043372Y-77486054D01*
X142000363Y-77519142D01*
X141951295Y-77538443D01*
X141901953Y-77544026D01*
X141884830Y-77543410D01*
X141831784Y-77532457D01*
X141784939Y-77507813D01*
X141748080Y-77473928D01*
X141737168Y-77460117D01*
X141713316Y-77417199D01*
X141697097Y-77365427D01*
X141689166Y-77312864D01*
X141687020Y-77262414D01*
X141687258Y-77245016D01*
X141690836Y-77196178D01*
X141700436Y-77145560D01*
X141718564Y-77096097D01*
X141748080Y-77051144D01*
X141759808Y-77038660D01*
X141802933Y-77005917D01*
X141852258Y-76986816D01*
X141901953Y-76981290D01*
X141918817Y-76981909D01*
G37*
G36*
X142890629Y-77756742D02*
G01*
X137720047Y-77756742D01*
X137720047Y-77630000D01*
X137831158Y-77630000D01*
X137964515Y-77630000D01*
X137964515Y-76895317D01*
X138181646Y-76895317D01*
X138181646Y-77630000D01*
X138305233Y-77630000D01*
X138305233Y-77227976D01*
X138307251Y-77178056D01*
X138314706Y-77127912D01*
X138332362Y-77076252D01*
X138362630Y-77035757D01*
X138400602Y-77009095D01*
X138447220Y-76991173D01*
X138498918Y-76985198D01*
X138539824Y-76989546D01*
X138585136Y-77007913D01*
X138609636Y-77026930D01*
X138636427Y-77068241D01*
X138640578Y-77080937D01*
X138648810Y-77130332D01*
X138650837Y-77182058D01*
X138650837Y-77630000D01*
X138774424Y-77630000D01*
X138774424Y-77263391D01*
X138915596Y-77263391D01*
X138917513Y-77311318D01*
X138924397Y-77363086D01*
X138936289Y-77411648D01*
X138955652Y-77462449D01*
X138969045Y-77488538D01*
X138997179Y-77530810D01*
X139030491Y-77567054D01*
X139068981Y-77597271D01*
X139078194Y-77603127D01*
X139125893Y-77626740D01*
X139176311Y-77640908D01*
X139229448Y-77645631D01*
X139262078Y-77643948D01*
X139314293Y-77632903D01*
X139360292Y-77611551D01*
X139400072Y-77579889D01*
X139433635Y-77537920D01*
X139433635Y-77630000D01*
X139548185Y-77630000D01*
X139548185Y-77349853D01*
X139736008Y-77349853D01*
X139736074Y-77364404D01*
X139737672Y-77415054D01*
X139743579Y-77466113D01*
X139757425Y-77513472D01*
X139781681Y-77558192D01*
X139785212Y-77562844D01*
X139821498Y-77596489D01*
X139864968Y-77620718D01*
X139886243Y-77629185D01*
X139934401Y-77641519D01*
X139985380Y-77645631D01*
X140003429Y-77645151D01*
X140054714Y-77637953D01*
X140101706Y-77622116D01*
X140144405Y-77597641D01*
X140182810Y-77564528D01*
X140216922Y-77522777D01*
X140216922Y-77630000D01*
X140327564Y-77630000D01*
X140327564Y-77265345D01*
X140479727Y-77265345D01*
X140481147Y-77309931D01*
X140486914Y-77361917D01*
X140497118Y-77409741D01*
X140515219Y-77461636D01*
X140539708Y-77507537D01*
X140570586Y-77547445D01*
X140576337Y-77553486D01*
X140613248Y-77585703D01*
X140661520Y-77614564D01*
X140707362Y-77631824D01*
X140757325Y-77642179D01*
X140811409Y-77645631D01*
X140818852Y-77645562D01*
X140868898Y-77641235D01*
X140921685Y-77628046D01*
X140969770Y-77606064D01*
X141013154Y-77575289D01*
X141023170Y-77566255D01*
X141058386Y-77525901D01*
X141085848Y-77478801D01*
X141103516Y-77432053D01*
X141115247Y-77380139D01*
X140993614Y-77364263D01*
X140983375Y-77412035D01*
X140963198Y-77460243D01*
X140931577Y-77500062D01*
X140909155Y-77517193D01*
X140861376Y-77537844D01*
X140810188Y-77544026D01*
X140798995Y-77543765D01*
X140747036Y-77534615D01*
X140701756Y-77512395D01*
X140663154Y-77477103D01*
X140656322Y-77468392D01*
X140631032Y-77421373D01*
X140616045Y-77368842D01*
X140608717Y-77314588D01*
X140606734Y-77261926D01*
X140606962Y-77244005D01*
X140610382Y-77193919D01*
X140619560Y-77142453D01*
X140636890Y-77092822D01*
X140665108Y-77048702D01*
X140676362Y-77036654D01*
X140718341Y-77005056D01*
X140767190Y-76986623D01*
X140817027Y-76981290D01*
X140828452Y-76981619D01*
X140877512Y-76991837D01*
X140922295Y-77018660D01*
X140942506Y-77039527D01*
X140968317Y-77083269D01*
X140983356Y-77129790D01*
X141103524Y-77111228D01*
X141093640Y-77071423D01*
X141074505Y-77023879D01*
X141044841Y-76977947D01*
X141006559Y-76940013D01*
X140960668Y-76910851D01*
X140920279Y-76895317D01*
X141148953Y-76895317D01*
X141148953Y-76993014D01*
X141239811Y-76993014D01*
X141239811Y-77418974D01*
X141240524Y-77464720D01*
X141244016Y-77517137D01*
X141254710Y-77567229D01*
X141269158Y-77591718D01*
X141306978Y-77624138D01*
X141314205Y-77627979D01*
X141361741Y-77642084D01*
X141411514Y-77645631D01*
X141455355Y-77641723D01*
X141504815Y-77630000D01*
X141486985Y-77516671D01*
X141480781Y-77519464D01*
X141432763Y-77532302D01*
X141390265Y-77523265D01*
X141369016Y-77498597D01*
X141364904Y-77479685D01*
X141362665Y-77428988D01*
X141362665Y-77262658D01*
X141559769Y-77262658D01*
X141561246Y-77307706D01*
X141567246Y-77360194D01*
X141577861Y-77408437D01*
X141596692Y-77460724D01*
X141622168Y-77506897D01*
X141654291Y-77546957D01*
X141666335Y-77558906D01*
X141705216Y-77590127D01*
X141748218Y-77614410D01*
X141795341Y-77631755D01*
X141846587Y-77642162D01*
X141901953Y-77645631D01*
X141931433Y-77644540D01*
X141982663Y-77637076D01*
X142031536Y-77622541D01*
X142078053Y-77600935D01*
X142102374Y-77586008D01*
X142141405Y-77554693D01*
X142174330Y-77517658D01*
X142201151Y-77474905D01*
X142211054Y-77453691D01*
X142226899Y-77405605D01*
X142236431Y-77357345D01*
X142241919Y-77303310D01*
X142243405Y-77252400D01*
X142242566Y-77220322D01*
X142237436Y-77169815D01*
X142225126Y-77114088D01*
X142206101Y-77063684D01*
X142180361Y-77018604D01*
X142147906Y-76978848D01*
X142135754Y-76966840D01*
X142096722Y-76935464D01*
X142053826Y-76911061D01*
X142011592Y-76895317D01*
X142383112Y-76895317D01*
X142383112Y-77630000D01*
X142506699Y-77630000D01*
X142506699Y-77246050D01*
X142508341Y-77202797D01*
X142514808Y-77152608D01*
X142527459Y-77101214D01*
X142540328Y-77071286D01*
X142573377Y-77033314D01*
X142596523Y-77019270D01*
X142646161Y-77008646D01*
X142691591Y-77015301D01*
X142737020Y-77035268D01*
X142779518Y-76919741D01*
X142751401Y-76904134D01*
X142703637Y-76886296D01*
X142652512Y-76879685D01*
X142618397Y-76883797D01*
X142572889Y-76904598D01*
X142552171Y-76922843D01*
X142520404Y-76964135D01*
X142494487Y-77007913D01*
X142494487Y-76895317D01*
X142383112Y-76895317D01*
X142011592Y-76895317D01*
X142007066Y-76893630D01*
X141956442Y-76883172D01*
X141901953Y-76879685D01*
X141868771Y-76880956D01*
X141813805Y-76889296D01*
X141762789Y-76905420D01*
X141715724Y-76929327D01*
X141672609Y-76961018D01*
X141665667Y-76967258D01*
X141628641Y-77009012D01*
X141599550Y-77058168D01*
X141581368Y-77104785D01*
X141568695Y-77156542D01*
X141561532Y-77213440D01*
X141559778Y-77262414D01*
X141559769Y-77262658D01*
X141362665Y-77262658D01*
X141362665Y-76993014D01*
X141486985Y-76993014D01*
X141486985Y-76895317D01*
X141362665Y-76895317D01*
X141362665Y-76645212D01*
X141239811Y-76717997D01*
X141239811Y-76895317D01*
X141148953Y-76895317D01*
X140920279Y-76895317D01*
X140914101Y-76892941D01*
X140862100Y-76882572D01*
X140812142Y-76879685D01*
X140783096Y-76880771D01*
X140732527Y-76888194D01*
X140684161Y-76902650D01*
X140637997Y-76924138D01*
X140614028Y-76939120D01*
X140575873Y-76971589D01*
X140544133Y-77011128D01*
X140518806Y-77057739D01*
X140516402Y-77063324D01*
X140499916Y-77110104D01*
X140488314Y-77160609D01*
X140481597Y-77214839D01*
X140479727Y-77265345D01*
X140327564Y-77265345D01*
X140327564Y-76895317D01*
X140203977Y-76895317D01*
X140203977Y-77289281D01*
X140202710Y-77333626D01*
X140196830Y-77385478D01*
X140183705Y-77433140D01*
X140182410Y-77436218D01*
X140154101Y-77479961D01*
X140114584Y-77511542D01*
X140108452Y-77515002D01*
X140060822Y-77533839D01*
X140010293Y-77540118D01*
X139962003Y-77533946D01*
X139916748Y-77512030D01*
X139887052Y-77481082D01*
X139867411Y-77434849D01*
X139863100Y-77403976D01*
X139860438Y-77353115D01*
X139859839Y-77303203D01*
X139859839Y-76895317D01*
X139736008Y-76895317D01*
X139736008Y-77349853D01*
X139548185Y-77349853D01*
X139548185Y-76613949D01*
X139425331Y-76613949D01*
X139425331Y-76984221D01*
X139416969Y-76972837D01*
X139382956Y-76937381D01*
X139341556Y-76908750D01*
X139325099Y-76900377D01*
X139275277Y-76884482D01*
X139224075Y-76879685D01*
X139212877Y-76879872D01*
X139158919Y-76886383D01*
X139108349Y-76902197D01*
X139061165Y-76927313D01*
X139043537Y-76939872D01*
X139004444Y-76976981D01*
X138975338Y-77017353D01*
X138951988Y-77064333D01*
X138936067Y-77110297D01*
X138924694Y-77158794D01*
X138917871Y-77209825D01*
X138915617Y-77262903D01*
X138915596Y-77263391D01*
X138774424Y-77263391D01*
X138774424Y-77178883D01*
X138774364Y-77163129D01*
X138772921Y-77109256D01*
X138767585Y-77057983D01*
X138753632Y-77011286D01*
X138728995Y-76966147D01*
X138725465Y-76961352D01*
X138689333Y-76927250D01*
X138646196Y-76903621D01*
X138625119Y-76895487D01*
X138576859Y-76883636D01*
X138525052Y-76879685D01*
X138515627Y-76879801D01*
X138462012Y-76885366D01*
X138413428Y-76899276D01*
X138363107Y-76926053D01*
X138325426Y-76958047D01*
X138292777Y-76998387D01*
X138292777Y-76895317D01*
X138181646Y-76895317D01*
X137964515Y-76895317D01*
X137964515Y-76613949D01*
X137831158Y-76613949D01*
X137831158Y-77630000D01*
X137720047Y-77630000D01*
X137720047Y-76502838D01*
X142890629Y-76502838D01*
X142890629Y-77756742D01*
G37*
G36*
X175646228Y-77031566D02*
G01*
X175695253Y-77041217D01*
X175739078Y-77064653D01*
X175777704Y-77101877D01*
X175791271Y-77120779D01*
X175812978Y-77166116D01*
X175826036Y-77214026D01*
X175833554Y-77269627D01*
X175835589Y-77323405D01*
X175835534Y-77331900D01*
X175832048Y-77387534D01*
X175823139Y-77436459D01*
X175806316Y-77484159D01*
X175778925Y-77527348D01*
X175741124Y-77562510D01*
X175694034Y-77586147D01*
X175641172Y-77594026D01*
X175636170Y-77593958D01*
X175583893Y-77584203D01*
X175540726Y-77561009D01*
X175501709Y-77524173D01*
X175494552Y-77515161D01*
X175468058Y-77467692D01*
X175452357Y-77415993D01*
X175444680Y-77363418D01*
X175442602Y-77312903D01*
X175442818Y-77294952D01*
X175446052Y-77244774D01*
X175454731Y-77193201D01*
X175471118Y-77143448D01*
X175497801Y-77099190D01*
X175501293Y-77095013D01*
X175539122Y-77060532D01*
X175586850Y-77037921D01*
X175635799Y-77031290D01*
X175646228Y-77031566D01*
G37*
G36*
X178318817Y-77031909D02*
G01*
X178371215Y-77042900D01*
X178417745Y-77067629D01*
X178454605Y-77101632D01*
X178462058Y-77110654D01*
X178489647Y-77157675D01*
X178505996Y-77208294D01*
X178513991Y-77259398D01*
X178516154Y-77308262D01*
X178515916Y-77326047D01*
X178512338Y-77375932D01*
X178502738Y-77427556D01*
X178484610Y-77477881D01*
X178455094Y-77523440D01*
X178443372Y-77536054D01*
X178400363Y-77569142D01*
X178351295Y-77588443D01*
X178301953Y-77594026D01*
X178284830Y-77593410D01*
X178231784Y-77582457D01*
X178184939Y-77557813D01*
X178148080Y-77523928D01*
X178137168Y-77510117D01*
X178113316Y-77467199D01*
X178097097Y-77415427D01*
X178089166Y-77362864D01*
X178087020Y-77312414D01*
X178087258Y-77295016D01*
X178090836Y-77246178D01*
X178100436Y-77195560D01*
X178118564Y-77146097D01*
X178148080Y-77101144D01*
X178159808Y-77088660D01*
X178202933Y-77055917D01*
X178252258Y-77036816D01*
X178301953Y-77031290D01*
X178318817Y-77031909D01*
G37*
G36*
X179290629Y-77806742D02*
G01*
X174120047Y-77806742D01*
X174120047Y-77680000D01*
X174231158Y-77680000D01*
X174364515Y-77680000D01*
X174364515Y-76945317D01*
X174581646Y-76945317D01*
X174581646Y-77680000D01*
X174705233Y-77680000D01*
X174705233Y-77277976D01*
X174707251Y-77228056D01*
X174714706Y-77177912D01*
X174732362Y-77126252D01*
X174762630Y-77085757D01*
X174800602Y-77059095D01*
X174847220Y-77041173D01*
X174898918Y-77035198D01*
X174939824Y-77039546D01*
X174985136Y-77057913D01*
X175009636Y-77076930D01*
X175036427Y-77118241D01*
X175040578Y-77130937D01*
X175048810Y-77180332D01*
X175050837Y-77232058D01*
X175050837Y-77680000D01*
X175174424Y-77680000D01*
X175174424Y-77313391D01*
X175315596Y-77313391D01*
X175317513Y-77361318D01*
X175324397Y-77413086D01*
X175336289Y-77461648D01*
X175355652Y-77512449D01*
X175369045Y-77538538D01*
X175397179Y-77580810D01*
X175430491Y-77617054D01*
X175468981Y-77647271D01*
X175478194Y-77653127D01*
X175525893Y-77676740D01*
X175576311Y-77690908D01*
X175629448Y-77695631D01*
X175662078Y-77693948D01*
X175714293Y-77682903D01*
X175760292Y-77661551D01*
X175800072Y-77629889D01*
X175833635Y-77587920D01*
X175833635Y-77680000D01*
X175948185Y-77680000D01*
X175948185Y-77399853D01*
X176136008Y-77399853D01*
X176136074Y-77414404D01*
X176137672Y-77465054D01*
X176143579Y-77516113D01*
X176157425Y-77563472D01*
X176181681Y-77608192D01*
X176185212Y-77612844D01*
X176221498Y-77646489D01*
X176264968Y-77670718D01*
X176286243Y-77679185D01*
X176334401Y-77691519D01*
X176385380Y-77695631D01*
X176403429Y-77695151D01*
X176454714Y-77687953D01*
X176501706Y-77672116D01*
X176544405Y-77647641D01*
X176582810Y-77614528D01*
X176616922Y-77572777D01*
X176616922Y-77680000D01*
X176727564Y-77680000D01*
X176727564Y-77315345D01*
X176879727Y-77315345D01*
X176881147Y-77359931D01*
X176886914Y-77411917D01*
X176897118Y-77459741D01*
X176915219Y-77511636D01*
X176939708Y-77557537D01*
X176970586Y-77597445D01*
X176976337Y-77603486D01*
X177013248Y-77635703D01*
X177061520Y-77664564D01*
X177107362Y-77681824D01*
X177157325Y-77692179D01*
X177211409Y-77695631D01*
X177218852Y-77695562D01*
X177268898Y-77691235D01*
X177321685Y-77678046D01*
X177369770Y-77656064D01*
X177413154Y-77625289D01*
X177423170Y-77616255D01*
X177458386Y-77575901D01*
X177485848Y-77528801D01*
X177503516Y-77482053D01*
X177515247Y-77430139D01*
X177393614Y-77414263D01*
X177383375Y-77462035D01*
X177363198Y-77510243D01*
X177331577Y-77550062D01*
X177309155Y-77567193D01*
X177261376Y-77587844D01*
X177210188Y-77594026D01*
X177198995Y-77593765D01*
X177147036Y-77584615D01*
X177101756Y-77562395D01*
X177063154Y-77527103D01*
X177056322Y-77518392D01*
X177031032Y-77471373D01*
X177016045Y-77418842D01*
X177008717Y-77364588D01*
X177006734Y-77311926D01*
X177006962Y-77294005D01*
X177010382Y-77243919D01*
X177019560Y-77192453D01*
X177036890Y-77142822D01*
X177065108Y-77098702D01*
X177076362Y-77086654D01*
X177118341Y-77055056D01*
X177167190Y-77036623D01*
X177217027Y-77031290D01*
X177228452Y-77031619D01*
X177277512Y-77041837D01*
X177322295Y-77068660D01*
X177342506Y-77089527D01*
X177368317Y-77133269D01*
X177383356Y-77179790D01*
X177503524Y-77161228D01*
X177493640Y-77121423D01*
X177474505Y-77073879D01*
X177444841Y-77027947D01*
X177406559Y-76990013D01*
X177360668Y-76960851D01*
X177320279Y-76945317D01*
X177548953Y-76945317D01*
X177548953Y-77043014D01*
X177639811Y-77043014D01*
X177639811Y-77468974D01*
X177640524Y-77514720D01*
X177644016Y-77567137D01*
X177654710Y-77617229D01*
X177669158Y-77641718D01*
X177706978Y-77674138D01*
X177714205Y-77677979D01*
X177761741Y-77692084D01*
X177811514Y-77695631D01*
X177855355Y-77691723D01*
X177904815Y-77680000D01*
X177886985Y-77566671D01*
X177880781Y-77569464D01*
X177832763Y-77582302D01*
X177790265Y-77573265D01*
X177769016Y-77548597D01*
X177764904Y-77529685D01*
X177762665Y-77478988D01*
X177762665Y-77312658D01*
X177959769Y-77312658D01*
X177961246Y-77357706D01*
X177967246Y-77410194D01*
X177977861Y-77458437D01*
X177996692Y-77510724D01*
X178022168Y-77556897D01*
X178054291Y-77596957D01*
X178066335Y-77608906D01*
X178105216Y-77640127D01*
X178148218Y-77664410D01*
X178195341Y-77681755D01*
X178246587Y-77692162D01*
X178301953Y-77695631D01*
X178331433Y-77694540D01*
X178382663Y-77687076D01*
X178431536Y-77672541D01*
X178478053Y-77650935D01*
X178502374Y-77636008D01*
X178541405Y-77604693D01*
X178574330Y-77567658D01*
X178601151Y-77524905D01*
X178611054Y-77503691D01*
X178626899Y-77455605D01*
X178636431Y-77407345D01*
X178641919Y-77353310D01*
X178643405Y-77302400D01*
X178642566Y-77270322D01*
X178637436Y-77219815D01*
X178625126Y-77164088D01*
X178606101Y-77113684D01*
X178580361Y-77068604D01*
X178547906Y-77028848D01*
X178535754Y-77016840D01*
X178496722Y-76985464D01*
X178453826Y-76961061D01*
X178411592Y-76945317D01*
X178783112Y-76945317D01*
X178783112Y-77680000D01*
X178906699Y-77680000D01*
X178906699Y-77296050D01*
X178908341Y-77252797D01*
X178914808Y-77202608D01*
X178927459Y-77151214D01*
X178940328Y-77121286D01*
X178973377Y-77083314D01*
X178996523Y-77069270D01*
X179046161Y-77058646D01*
X179091591Y-77065301D01*
X179137020Y-77085268D01*
X179179518Y-76969741D01*
X179151401Y-76954134D01*
X179103637Y-76936296D01*
X179052512Y-76929685D01*
X179018397Y-76933797D01*
X178972889Y-76954598D01*
X178952171Y-76972843D01*
X178920404Y-77014135D01*
X178894487Y-77057913D01*
X178894487Y-76945317D01*
X178783112Y-76945317D01*
X178411592Y-76945317D01*
X178407066Y-76943630D01*
X178356442Y-76933172D01*
X178301953Y-76929685D01*
X178268771Y-76930956D01*
X178213805Y-76939296D01*
X178162789Y-76955420D01*
X178115724Y-76979327D01*
X178072609Y-77011018D01*
X178065667Y-77017258D01*
X178028641Y-77059012D01*
X177999550Y-77108168D01*
X177981368Y-77154785D01*
X177968695Y-77206542D01*
X177961532Y-77263440D01*
X177959778Y-77312414D01*
X177959769Y-77312658D01*
X177762665Y-77312658D01*
X177762665Y-77043014D01*
X177886985Y-77043014D01*
X177886985Y-76945317D01*
X177762665Y-76945317D01*
X177762665Y-76695212D01*
X177639811Y-76767997D01*
X177639811Y-76945317D01*
X177548953Y-76945317D01*
X177320279Y-76945317D01*
X177314101Y-76942941D01*
X177262100Y-76932572D01*
X177212142Y-76929685D01*
X177183096Y-76930771D01*
X177132527Y-76938194D01*
X177084161Y-76952650D01*
X177037997Y-76974138D01*
X177014028Y-76989120D01*
X176975873Y-77021589D01*
X176944133Y-77061128D01*
X176918806Y-77107739D01*
X176916402Y-77113324D01*
X176899916Y-77160104D01*
X176888314Y-77210609D01*
X176881597Y-77264839D01*
X176879727Y-77315345D01*
X176727564Y-77315345D01*
X176727564Y-76945317D01*
X176603977Y-76945317D01*
X176603977Y-77339281D01*
X176602710Y-77383626D01*
X176596830Y-77435478D01*
X176583705Y-77483140D01*
X176582410Y-77486218D01*
X176554101Y-77529961D01*
X176514584Y-77561542D01*
X176508452Y-77565002D01*
X176460822Y-77583839D01*
X176410293Y-77590118D01*
X176362003Y-77583946D01*
X176316748Y-77562030D01*
X176287052Y-77531082D01*
X176267411Y-77484849D01*
X176263100Y-77453976D01*
X176260438Y-77403115D01*
X176259839Y-77353203D01*
X176259839Y-76945317D01*
X176136008Y-76945317D01*
X176136008Y-77399853D01*
X175948185Y-77399853D01*
X175948185Y-76663949D01*
X175825331Y-76663949D01*
X175825331Y-77034221D01*
X175816969Y-77022837D01*
X175782956Y-76987381D01*
X175741556Y-76958750D01*
X175725099Y-76950377D01*
X175675277Y-76934482D01*
X175624075Y-76929685D01*
X175612877Y-76929872D01*
X175558919Y-76936383D01*
X175508349Y-76952197D01*
X175461165Y-76977313D01*
X175443537Y-76989872D01*
X175404444Y-77026981D01*
X175375338Y-77067353D01*
X175351988Y-77114333D01*
X175336067Y-77160297D01*
X175324694Y-77208794D01*
X175317871Y-77259825D01*
X175315617Y-77312903D01*
X175315596Y-77313391D01*
X175174424Y-77313391D01*
X175174424Y-77228883D01*
X175174364Y-77213129D01*
X175172921Y-77159256D01*
X175167585Y-77107983D01*
X175153632Y-77061286D01*
X175128995Y-77016147D01*
X175125465Y-77011352D01*
X175089333Y-76977250D01*
X175046196Y-76953621D01*
X175025119Y-76945487D01*
X174976859Y-76933636D01*
X174925052Y-76929685D01*
X174915627Y-76929801D01*
X174862012Y-76935366D01*
X174813428Y-76949276D01*
X174763107Y-76976053D01*
X174725426Y-77008047D01*
X174692777Y-77048387D01*
X174692777Y-76945317D01*
X174581646Y-76945317D01*
X174364515Y-76945317D01*
X174364515Y-76663949D01*
X174231158Y-76663949D01*
X174231158Y-77680000D01*
X174120047Y-77680000D01*
X174120047Y-76552838D01*
X179290629Y-76552838D01*
X179290629Y-77806742D01*
G37*
D10*
G36*
X153151607Y-72000670D02*
G01*
X153200994Y-72007729D01*
X153248441Y-72019492D01*
X153301344Y-72039164D01*
X153351605Y-72065240D01*
X153398092Y-72097055D01*
X153439460Y-72133942D01*
X153475710Y-72175902D01*
X153506840Y-72222933D01*
X153522330Y-72252086D01*
X153542334Y-72298099D01*
X153558200Y-72346379D01*
X153569926Y-72396926D01*
X153577514Y-72449740D01*
X153580963Y-72504820D01*
X153581193Y-72523684D01*
X153579012Y-72580253D01*
X153572469Y-72634555D01*
X153561564Y-72686590D01*
X153546297Y-72736359D01*
X153526667Y-72783860D01*
X153519155Y-72799190D01*
X153494171Y-72842641D01*
X153460443Y-72888104D01*
X153421782Y-72927933D01*
X153378190Y-72962128D01*
X153344033Y-72983105D01*
X153293599Y-73007468D01*
X153241458Y-73025847D01*
X153187610Y-73038243D01*
X153132057Y-73044654D01*
X153099546Y-73045631D01*
X153047296Y-73043210D01*
X152997159Y-73035945D01*
X152949133Y-73023838D01*
X152903220Y-73006888D01*
X152859420Y-72985095D01*
X152845289Y-72976755D01*
X152798932Y-72944107D01*
X152757740Y-72906644D01*
X152721715Y-72864365D01*
X152690855Y-72817272D01*
X152675540Y-72788199D01*
X152655951Y-72742922D01*
X152638220Y-72688861D01*
X152626005Y-72633467D01*
X152619925Y-72584927D01*
X152617969Y-72537117D01*
X152755408Y-72537117D01*
X152757799Y-72592612D01*
X152764972Y-72644303D01*
X152776928Y-72692189D01*
X152797588Y-72744631D01*
X152825134Y-72791594D01*
X152853349Y-72826545D01*
X152891820Y-72862486D01*
X152933778Y-72890991D01*
X152979221Y-72912060D01*
X153028151Y-72925693D01*
X153080567Y-72931889D01*
X153098813Y-72932302D01*
X153153361Y-72928550D01*
X153204166Y-72917293D01*
X153251226Y-72898531D01*
X153294543Y-72872264D01*
X153334116Y-72838493D01*
X153346475Y-72825568D01*
X153379511Y-72782400D01*
X153405712Y-72732947D01*
X153422325Y-72686934D01*
X153434191Y-72636557D01*
X153441311Y-72581814D01*
X153443684Y-72522707D01*
X153441697Y-72469932D01*
X153435737Y-72420172D01*
X153424059Y-72366996D01*
X153407191Y-72317758D01*
X153402163Y-72306064D01*
X153378990Y-72262390D01*
X153347155Y-72219498D01*
X153309215Y-72183212D01*
X153280530Y-72162693D01*
X153233941Y-72138017D01*
X153184299Y-72121417D01*
X153131605Y-72112893D01*
X153101011Y-72111646D01*
X153049280Y-72115098D01*
X153000330Y-72125454D01*
X152954162Y-72142713D01*
X152910777Y-72166876D01*
X152870173Y-72197942D01*
X152857257Y-72209832D01*
X152822644Y-72251180D01*
X152795193Y-72301767D01*
X152777787Y-72350980D01*
X152765354Y-72406610D01*
X152758988Y-72455733D01*
X152755806Y-72508963D01*
X152755408Y-72537117D01*
X152617969Y-72537117D01*
X152617899Y-72535408D01*
X152620002Y-72474107D01*
X152626310Y-72416232D01*
X152636824Y-72361785D01*
X152651543Y-72310765D01*
X152670468Y-72263172D01*
X152693599Y-72219006D01*
X152720935Y-72178267D01*
X152752477Y-72140956D01*
X152796517Y-72099864D01*
X152844373Y-72065736D01*
X152896046Y-72038574D01*
X152951535Y-72018376D01*
X153010840Y-72005143D01*
X153061032Y-71999571D01*
X153100279Y-71998318D01*
X153151607Y-72000670D01*
G37*
G36*
X154209141Y-73030000D02*
G01*
X154209141Y-72922777D01*
X154175029Y-72964528D01*
X154136624Y-72997641D01*
X154093925Y-73022116D01*
X154046933Y-73037953D01*
X153995648Y-73045151D01*
X153977599Y-73045631D01*
X153926620Y-73041519D01*
X153878462Y-73029185D01*
X153857187Y-73020718D01*
X153813717Y-72996489D01*
X153777431Y-72962844D01*
X153773900Y-72958192D01*
X153749645Y-72913472D01*
X153735799Y-72866113D01*
X153729891Y-72815054D01*
X153728294Y-72764404D01*
X153728227Y-72749853D01*
X153728227Y-72295317D01*
X153852058Y-72295317D01*
X153852058Y-72703203D01*
X153852657Y-72753115D01*
X153855319Y-72803976D01*
X153859630Y-72834849D01*
X153879271Y-72881082D01*
X153908967Y-72912030D01*
X153954222Y-72933946D01*
X154002512Y-72940118D01*
X154053041Y-72933839D01*
X154100672Y-72915002D01*
X154106803Y-72911542D01*
X154146320Y-72879961D01*
X154174629Y-72836218D01*
X154175924Y-72833140D01*
X154189050Y-72785478D01*
X154194929Y-72733626D01*
X154196196Y-72689281D01*
X154196196Y-72295317D01*
X154319783Y-72295317D01*
X154319783Y-73030000D01*
X154209141Y-73030000D01*
G37*
G36*
X154779692Y-72916671D02*
G01*
X154797522Y-73030000D01*
X154748063Y-73041723D01*
X154704221Y-73045631D01*
X154654448Y-73042084D01*
X154606913Y-73027979D01*
X154599685Y-73024138D01*
X154561866Y-72991718D01*
X154547418Y-72967229D01*
X154536724Y-72917137D01*
X154533232Y-72864720D01*
X154532519Y-72818974D01*
X154532519Y-72393014D01*
X154441660Y-72393014D01*
X154441660Y-72295317D01*
X154532519Y-72295317D01*
X154532519Y-72117997D01*
X154655373Y-72045212D01*
X154655373Y-72295317D01*
X154779692Y-72295317D01*
X154779692Y-72393014D01*
X154655373Y-72393014D01*
X154655373Y-72828988D01*
X154657612Y-72879685D01*
X154661723Y-72898597D01*
X154682972Y-72923265D01*
X154725471Y-72932302D01*
X154773489Y-72919464D01*
X154779692Y-72916671D01*
G37*
G36*
X155273610Y-72283511D02*
G01*
X155325998Y-72296734D01*
X155374045Y-72319403D01*
X155387613Y-72328046D01*
X155428905Y-72362135D01*
X155463328Y-72403952D01*
X155488436Y-72448194D01*
X155495568Y-72464333D01*
X155513160Y-72515125D01*
X155524995Y-72568584D01*
X155530681Y-72618341D01*
X155531960Y-72657041D01*
X155529442Y-72711934D01*
X155521885Y-72764019D01*
X155509292Y-72813295D01*
X155491660Y-72859762D01*
X155466231Y-72907017D01*
X155435006Y-72947664D01*
X155397984Y-72981704D01*
X155374912Y-72997759D01*
X155331273Y-73020900D01*
X155281289Y-73037730D01*
X155229731Y-73045210D01*
X155213956Y-73045631D01*
X155162271Y-73040629D01*
X155115355Y-73025622D01*
X155102826Y-73019497D01*
X155060665Y-72991991D01*
X155024212Y-72956026D01*
X155022226Y-72953551D01*
X155022226Y-73311367D01*
X154898639Y-73311367D01*
X154898639Y-72667299D01*
X155010502Y-72667299D01*
X155012503Y-72717737D01*
X155019894Y-72770026D01*
X155035010Y-72821142D01*
X155060519Y-72867626D01*
X155067411Y-72876371D01*
X155105469Y-72912048D01*
X155152732Y-72936032D01*
X155205652Y-72944026D01*
X155254782Y-72937181D01*
X155299285Y-72916644D01*
X155339160Y-72882417D01*
X155346580Y-72873928D01*
X155375034Y-72828413D01*
X155392509Y-72777736D01*
X155401764Y-72725505D01*
X155405213Y-72674875D01*
X155405443Y-72656796D01*
X155403425Y-72606788D01*
X155395970Y-72554695D01*
X155380724Y-72503404D01*
X155354996Y-72456212D01*
X155348046Y-72447236D01*
X155310107Y-72410399D01*
X155263250Y-72385637D01*
X155211025Y-72377383D01*
X155158924Y-72386156D01*
X155115265Y-72409359D01*
X155078991Y-72442641D01*
X155071318Y-72451632D01*
X155044711Y-72492955D01*
X155025706Y-72542674D01*
X155015313Y-72593065D01*
X155010740Y-72649884D01*
X155010502Y-72667299D01*
X154898639Y-72667299D01*
X154898639Y-72295317D01*
X155011235Y-72295317D01*
X155011235Y-72391793D01*
X155042536Y-72353760D01*
X155079701Y-72321394D01*
X155101116Y-72307773D01*
X155149161Y-72288573D01*
X155200975Y-72280371D01*
X155222749Y-72279685D01*
X155273610Y-72283511D01*
G37*
G36*
X156155268Y-73030000D02*
G01*
X156155268Y-72922777D01*
X156121156Y-72964528D01*
X156082751Y-72997641D01*
X156040052Y-73022116D01*
X155993060Y-73037953D01*
X155941775Y-73045151D01*
X155923726Y-73045631D01*
X155872747Y-73041519D01*
X155824589Y-73029185D01*
X155803314Y-73020718D01*
X155759844Y-72996489D01*
X155723558Y-72962844D01*
X155720027Y-72958192D01*
X155695772Y-72913472D01*
X155681926Y-72866113D01*
X155676018Y-72815054D01*
X155674421Y-72764404D01*
X155674354Y-72749853D01*
X155674354Y-72295317D01*
X155798185Y-72295317D01*
X155798185Y-72703203D01*
X155798784Y-72753115D01*
X155801446Y-72803976D01*
X155805757Y-72834849D01*
X155825398Y-72881082D01*
X155855094Y-72912030D01*
X155900349Y-72933946D01*
X155948639Y-72940118D01*
X155999168Y-72933839D01*
X156046799Y-72915002D01*
X156052930Y-72911542D01*
X156092447Y-72879961D01*
X156120756Y-72836218D01*
X156122051Y-72833140D01*
X156135177Y-72785478D01*
X156141056Y-72733626D01*
X156142323Y-72689281D01*
X156142323Y-72295317D01*
X156265910Y-72295317D01*
X156265910Y-73030000D01*
X156155268Y-73030000D01*
G37*
G36*
X156725819Y-72916671D02*
G01*
X156743649Y-73030000D01*
X156694190Y-73041723D01*
X156650348Y-73045631D01*
X156600575Y-73042084D01*
X156553040Y-73027979D01*
X156545812Y-73024138D01*
X156507993Y-72991718D01*
X156493545Y-72967229D01*
X156482851Y-72917137D01*
X156479359Y-72864720D01*
X156478646Y-72818974D01*
X156478646Y-72393014D01*
X156387787Y-72393014D01*
X156387787Y-72295317D01*
X156478646Y-72295317D01*
X156478646Y-72117997D01*
X156601500Y-72045212D01*
X156601500Y-72295317D01*
X156725819Y-72295317D01*
X156725819Y-72393014D01*
X156601500Y-72393014D01*
X156601500Y-72828988D01*
X156603739Y-72879685D01*
X156607850Y-72898597D01*
X156629099Y-72923265D01*
X156671598Y-72932302D01*
X156719616Y-72919464D01*
X156725819Y-72916671D01*
G37*
D12*
G36*
X152702442Y-50673684D02*
G01*
X152702442Y-50400132D01*
X152428401Y-50400132D01*
X152428401Y-50282896D01*
X152702442Y-50282896D01*
X152702442Y-50017159D01*
X152819190Y-50017159D01*
X152819190Y-50282896D01*
X153093230Y-50282896D01*
X153093230Y-50400132D01*
X152819190Y-50400132D01*
X152819190Y-50673684D01*
X152702442Y-50673684D01*
G37*
G36*
X153225122Y-50564263D02*
G01*
X153355059Y-50553272D01*
X153366179Y-50602987D01*
X153385603Y-50649479D01*
X153415566Y-50689986D01*
X153421981Y-50696154D01*
X153464422Y-50725326D01*
X153512977Y-50741034D01*
X153548743Y-50744026D01*
X153601790Y-50737300D01*
X153649494Y-50717121D01*
X153691854Y-50683490D01*
X153699685Y-50675150D01*
X153729674Y-50632871D01*
X153749849Y-50583521D01*
X153759542Y-50533719D01*
X153761723Y-50492700D01*
X153757998Y-50441455D01*
X153744904Y-50390628D01*
X153722381Y-50347027D01*
X153702128Y-50321974D01*
X153661432Y-50289002D01*
X153613533Y-50268241D01*
X153564265Y-50259998D01*
X153546545Y-50259448D01*
X153496597Y-50264871D01*
X153447957Y-50282717D01*
X153438834Y-50287780D01*
X153398234Y-50317869D01*
X153366649Y-50355472D01*
X153363119Y-50361053D01*
X153247103Y-50345910D01*
X153344556Y-49829581D01*
X153845498Y-49829581D01*
X153845498Y-49946817D01*
X153443475Y-49946817D01*
X153389253Y-50217438D01*
X153435216Y-50191366D01*
X153482248Y-50172742D01*
X153530349Y-50161568D01*
X153579518Y-50157843D01*
X153635245Y-50162238D01*
X153687022Y-50175421D01*
X153734849Y-50197393D01*
X153778725Y-50228155D01*
X153802023Y-50249678D01*
X153837426Y-50292274D01*
X153864133Y-50339919D01*
X153882145Y-50392612D01*
X153890663Y-50441796D01*
X153892882Y-50485617D01*
X153890082Y-50535778D01*
X153879741Y-50590977D01*
X153861779Y-50642600D01*
X153836197Y-50690647D01*
X153813258Y-50722777D01*
X153774415Y-50764528D01*
X153730609Y-50797641D01*
X153681840Y-50822116D01*
X153628107Y-50837953D01*
X153579539Y-50844551D01*
X153548743Y-50845631D01*
X153498955Y-50842926D01*
X153445362Y-50832934D01*
X153396607Y-50815578D01*
X153352691Y-50790859D01*
X153324284Y-50768695D01*
X153289903Y-50732532D01*
X153262628Y-50691578D01*
X153242459Y-50645832D01*
X153229396Y-50595294D01*
X153225122Y-50564263D01*
G37*
G36*
X154341800Y-50830000D02*
G01*
X153951500Y-49813949D01*
X154095847Y-49813949D01*
X154357676Y-50552784D01*
X154374587Y-50601904D01*
X154389876Y-50649246D01*
X154404960Y-50699765D01*
X154410432Y-50719357D01*
X154425802Y-50667303D01*
X154440859Y-50620454D01*
X154457075Y-50573606D01*
X154464654Y-50552784D01*
X154736741Y-49813949D01*
X154872784Y-49813949D01*
X154478576Y-50830000D01*
X154341800Y-50830000D01*
G37*
D13*
X159838095Y-67404819D02*
X159838095Y-68214342D01*
X159838095Y-68214342D02*
X159885714Y-68309580D01*
X159885714Y-68309580D02*
X159933333Y-68357200D01*
X159933333Y-68357200D02*
X160028571Y-68404819D01*
X160028571Y-68404819D02*
X160219047Y-68404819D01*
X160219047Y-68404819D02*
X160314285Y-68357200D01*
X160314285Y-68357200D02*
X160361904Y-68309580D01*
X160361904Y-68309580D02*
X160409523Y-68214342D01*
X160409523Y-68214342D02*
X160409523Y-67404819D01*
X160838095Y-67500057D02*
X160885714Y-67452438D01*
X160885714Y-67452438D02*
X160980952Y-67404819D01*
X160980952Y-67404819D02*
X161219047Y-67404819D01*
X161219047Y-67404819D02*
X161314285Y-67452438D01*
X161314285Y-67452438D02*
X161361904Y-67500057D01*
X161361904Y-67500057D02*
X161409523Y-67595295D01*
X161409523Y-67595295D02*
X161409523Y-67690533D01*
X161409523Y-67690533D02*
X161361904Y-67833390D01*
X161361904Y-67833390D02*
X160790476Y-68404819D01*
X160790476Y-68404819D02*
X161409523Y-68404819D01*
X178233333Y-59104819D02*
X177900000Y-58628628D01*
X177661905Y-59104819D02*
X177661905Y-58104819D01*
X177661905Y-58104819D02*
X178042857Y-58104819D01*
X178042857Y-58104819D02*
X178138095Y-58152438D01*
X178138095Y-58152438D02*
X178185714Y-58200057D01*
X178185714Y-58200057D02*
X178233333Y-58295295D01*
X178233333Y-58295295D02*
X178233333Y-58438152D01*
X178233333Y-58438152D02*
X178185714Y-58533390D01*
X178185714Y-58533390D02*
X178138095Y-58581009D01*
X178138095Y-58581009D02*
X178042857Y-58628628D01*
X178042857Y-58628628D02*
X177661905Y-58628628D01*
X178614286Y-58200057D02*
X178661905Y-58152438D01*
X178661905Y-58152438D02*
X178757143Y-58104819D01*
X178757143Y-58104819D02*
X178995238Y-58104819D01*
X178995238Y-58104819D02*
X179090476Y-58152438D01*
X179090476Y-58152438D02*
X179138095Y-58200057D01*
X179138095Y-58200057D02*
X179185714Y-58295295D01*
X179185714Y-58295295D02*
X179185714Y-58390533D01*
X179185714Y-58390533D02*
X179138095Y-58533390D01*
X179138095Y-58533390D02*
X178566667Y-59104819D01*
X178566667Y-59104819D02*
X179185714Y-59104819D01*
X167933333Y-68209580D02*
X167885714Y-68257200D01*
X167885714Y-68257200D02*
X167742857Y-68304819D01*
X167742857Y-68304819D02*
X167647619Y-68304819D01*
X167647619Y-68304819D02*
X167504762Y-68257200D01*
X167504762Y-68257200D02*
X167409524Y-68161961D01*
X167409524Y-68161961D02*
X167361905Y-68066723D01*
X167361905Y-68066723D02*
X167314286Y-67876247D01*
X167314286Y-67876247D02*
X167314286Y-67733390D01*
X167314286Y-67733390D02*
X167361905Y-67542914D01*
X167361905Y-67542914D02*
X167409524Y-67447676D01*
X167409524Y-67447676D02*
X167504762Y-67352438D01*
X167504762Y-67352438D02*
X167647619Y-67304819D01*
X167647619Y-67304819D02*
X167742857Y-67304819D01*
X167742857Y-67304819D02*
X167885714Y-67352438D01*
X167885714Y-67352438D02*
X167933333Y-67400057D01*
X168790476Y-67638152D02*
X168790476Y-68304819D01*
X168552381Y-67257200D02*
X168314286Y-67971485D01*
X168314286Y-67971485D02*
X168933333Y-67971485D01*
X163816666Y-70104819D02*
X163816666Y-70819104D01*
X163816666Y-70819104D02*
X163769047Y-70961961D01*
X163769047Y-70961961D02*
X163673809Y-71057200D01*
X163673809Y-71057200D02*
X163530952Y-71104819D01*
X163530952Y-71104819D02*
X163435714Y-71104819D01*
X164769047Y-70104819D02*
X164292857Y-70104819D01*
X164292857Y-70104819D02*
X164245238Y-70581009D01*
X164245238Y-70581009D02*
X164292857Y-70533390D01*
X164292857Y-70533390D02*
X164388095Y-70485771D01*
X164388095Y-70485771D02*
X164626190Y-70485771D01*
X164626190Y-70485771D02*
X164721428Y-70533390D01*
X164721428Y-70533390D02*
X164769047Y-70581009D01*
X164769047Y-70581009D02*
X164816666Y-70676247D01*
X164816666Y-70676247D02*
X164816666Y-70914342D01*
X164816666Y-70914342D02*
X164769047Y-71009580D01*
X164769047Y-71009580D02*
X164721428Y-71057200D01*
X164721428Y-71057200D02*
X164626190Y-71104819D01*
X164626190Y-71104819D02*
X164388095Y-71104819D01*
X164388095Y-71104819D02*
X164292857Y-71057200D01*
X164292857Y-71057200D02*
X164245238Y-71009580D01*
X165083333Y-53529580D02*
X165035714Y-53577200D01*
X165035714Y-53577200D02*
X164892857Y-53624819D01*
X164892857Y-53624819D02*
X164797619Y-53624819D01*
X164797619Y-53624819D02*
X164654762Y-53577200D01*
X164654762Y-53577200D02*
X164559524Y-53481961D01*
X164559524Y-53481961D02*
X164511905Y-53386723D01*
X164511905Y-53386723D02*
X164464286Y-53196247D01*
X164464286Y-53196247D02*
X164464286Y-53053390D01*
X164464286Y-53053390D02*
X164511905Y-52862914D01*
X164511905Y-52862914D02*
X164559524Y-52767676D01*
X164559524Y-52767676D02*
X164654762Y-52672438D01*
X164654762Y-52672438D02*
X164797619Y-52624819D01*
X164797619Y-52624819D02*
X164892857Y-52624819D01*
X164892857Y-52624819D02*
X165035714Y-52672438D01*
X165035714Y-52672438D02*
X165083333Y-52720057D01*
X165988095Y-52624819D02*
X165511905Y-52624819D01*
X165511905Y-52624819D02*
X165464286Y-53101009D01*
X165464286Y-53101009D02*
X165511905Y-53053390D01*
X165511905Y-53053390D02*
X165607143Y-53005771D01*
X165607143Y-53005771D02*
X165845238Y-53005771D01*
X165845238Y-53005771D02*
X165940476Y-53053390D01*
X165940476Y-53053390D02*
X165988095Y-53101009D01*
X165988095Y-53101009D02*
X166035714Y-53196247D01*
X166035714Y-53196247D02*
X166035714Y-53434342D01*
X166035714Y-53434342D02*
X165988095Y-53529580D01*
X165988095Y-53529580D02*
X165940476Y-53577200D01*
X165940476Y-53577200D02*
X165845238Y-53624819D01*
X165845238Y-53624819D02*
X165607143Y-53624819D01*
X165607143Y-53624819D02*
X165511905Y-53577200D01*
X165511905Y-53577200D02*
X165464286Y-53529580D01*
X116133333Y-65404819D02*
X115800000Y-64928628D01*
X115561905Y-65404819D02*
X115561905Y-64404819D01*
X115561905Y-64404819D02*
X115942857Y-64404819D01*
X115942857Y-64404819D02*
X116038095Y-64452438D01*
X116038095Y-64452438D02*
X116085714Y-64500057D01*
X116085714Y-64500057D02*
X116133333Y-64595295D01*
X116133333Y-64595295D02*
X116133333Y-64738152D01*
X116133333Y-64738152D02*
X116085714Y-64833390D01*
X116085714Y-64833390D02*
X116038095Y-64881009D01*
X116038095Y-64881009D02*
X115942857Y-64928628D01*
X115942857Y-64928628D02*
X115561905Y-64928628D01*
X117085714Y-65404819D02*
X116514286Y-65404819D01*
X116800000Y-65404819D02*
X116800000Y-64404819D01*
X116800000Y-64404819D02*
X116704762Y-64547676D01*
X116704762Y-64547676D02*
X116609524Y-64642914D01*
X116609524Y-64642914D02*
X116514286Y-64690533D01*
X156733333Y-55859580D02*
X156685714Y-55907200D01*
X156685714Y-55907200D02*
X156542857Y-55954819D01*
X156542857Y-55954819D02*
X156447619Y-55954819D01*
X156447619Y-55954819D02*
X156304762Y-55907200D01*
X156304762Y-55907200D02*
X156209524Y-55811961D01*
X156209524Y-55811961D02*
X156161905Y-55716723D01*
X156161905Y-55716723D02*
X156114286Y-55526247D01*
X156114286Y-55526247D02*
X156114286Y-55383390D01*
X156114286Y-55383390D02*
X156161905Y-55192914D01*
X156161905Y-55192914D02*
X156209524Y-55097676D01*
X156209524Y-55097676D02*
X156304762Y-55002438D01*
X156304762Y-55002438D02*
X156447619Y-54954819D01*
X156447619Y-54954819D02*
X156542857Y-54954819D01*
X156542857Y-54954819D02*
X156685714Y-55002438D01*
X156685714Y-55002438D02*
X156733333Y-55050057D01*
X157590476Y-54954819D02*
X157400000Y-54954819D01*
X157400000Y-54954819D02*
X157304762Y-55002438D01*
X157304762Y-55002438D02*
X157257143Y-55050057D01*
X157257143Y-55050057D02*
X157161905Y-55192914D01*
X157161905Y-55192914D02*
X157114286Y-55383390D01*
X157114286Y-55383390D02*
X157114286Y-55764342D01*
X157114286Y-55764342D02*
X157161905Y-55859580D01*
X157161905Y-55859580D02*
X157209524Y-55907200D01*
X157209524Y-55907200D02*
X157304762Y-55954819D01*
X157304762Y-55954819D02*
X157495238Y-55954819D01*
X157495238Y-55954819D02*
X157590476Y-55907200D01*
X157590476Y-55907200D02*
X157638095Y-55859580D01*
X157638095Y-55859580D02*
X157685714Y-55764342D01*
X157685714Y-55764342D02*
X157685714Y-55526247D01*
X157685714Y-55526247D02*
X157638095Y-55431009D01*
X157638095Y-55431009D02*
X157590476Y-55383390D01*
X157590476Y-55383390D02*
X157495238Y-55335771D01*
X157495238Y-55335771D02*
X157304762Y-55335771D01*
X157304762Y-55335771D02*
X157209524Y-55383390D01*
X157209524Y-55383390D02*
X157161905Y-55431009D01*
X157161905Y-55431009D02*
X157114286Y-55526247D01*
X119983333Y-55109580D02*
X119935714Y-55157200D01*
X119935714Y-55157200D02*
X119792857Y-55204819D01*
X119792857Y-55204819D02*
X119697619Y-55204819D01*
X119697619Y-55204819D02*
X119554762Y-55157200D01*
X119554762Y-55157200D02*
X119459524Y-55061961D01*
X119459524Y-55061961D02*
X119411905Y-54966723D01*
X119411905Y-54966723D02*
X119364286Y-54776247D01*
X119364286Y-54776247D02*
X119364286Y-54633390D01*
X119364286Y-54633390D02*
X119411905Y-54442914D01*
X119411905Y-54442914D02*
X119459524Y-54347676D01*
X119459524Y-54347676D02*
X119554762Y-54252438D01*
X119554762Y-54252438D02*
X119697619Y-54204819D01*
X119697619Y-54204819D02*
X119792857Y-54204819D01*
X119792857Y-54204819D02*
X119935714Y-54252438D01*
X119935714Y-54252438D02*
X119983333Y-54300057D01*
X120316667Y-54204819D02*
X120935714Y-54204819D01*
X120935714Y-54204819D02*
X120602381Y-54585771D01*
X120602381Y-54585771D02*
X120745238Y-54585771D01*
X120745238Y-54585771D02*
X120840476Y-54633390D01*
X120840476Y-54633390D02*
X120888095Y-54681009D01*
X120888095Y-54681009D02*
X120935714Y-54776247D01*
X120935714Y-54776247D02*
X120935714Y-55014342D01*
X120935714Y-55014342D02*
X120888095Y-55109580D01*
X120888095Y-55109580D02*
X120840476Y-55157200D01*
X120840476Y-55157200D02*
X120745238Y-55204819D01*
X120745238Y-55204819D02*
X120459524Y-55204819D01*
X120459524Y-55204819D02*
X120364286Y-55157200D01*
X120364286Y-55157200D02*
X120316667Y-55109580D01*
X152333333Y-65254819D02*
X152000000Y-64778628D01*
X151761905Y-65254819D02*
X151761905Y-64254819D01*
X151761905Y-64254819D02*
X152142857Y-64254819D01*
X152142857Y-64254819D02*
X152238095Y-64302438D01*
X152238095Y-64302438D02*
X152285714Y-64350057D01*
X152285714Y-64350057D02*
X152333333Y-64445295D01*
X152333333Y-64445295D02*
X152333333Y-64588152D01*
X152333333Y-64588152D02*
X152285714Y-64683390D01*
X152285714Y-64683390D02*
X152238095Y-64731009D01*
X152238095Y-64731009D02*
X152142857Y-64778628D01*
X152142857Y-64778628D02*
X151761905Y-64778628D01*
X153238095Y-64254819D02*
X152761905Y-64254819D01*
X152761905Y-64254819D02*
X152714286Y-64731009D01*
X152714286Y-64731009D02*
X152761905Y-64683390D01*
X152761905Y-64683390D02*
X152857143Y-64635771D01*
X152857143Y-64635771D02*
X153095238Y-64635771D01*
X153095238Y-64635771D02*
X153190476Y-64683390D01*
X153190476Y-64683390D02*
X153238095Y-64731009D01*
X153238095Y-64731009D02*
X153285714Y-64826247D01*
X153285714Y-64826247D02*
X153285714Y-65064342D01*
X153285714Y-65064342D02*
X153238095Y-65159580D01*
X153238095Y-65159580D02*
X153190476Y-65207200D01*
X153190476Y-65207200D02*
X153095238Y-65254819D01*
X153095238Y-65254819D02*
X152857143Y-65254819D01*
X152857143Y-65254819D02*
X152761905Y-65207200D01*
X152761905Y-65207200D02*
X152714286Y-65159580D01*
X139566666Y-62054819D02*
X139566666Y-62769104D01*
X139566666Y-62769104D02*
X139519047Y-62911961D01*
X139519047Y-62911961D02*
X139423809Y-63007200D01*
X139423809Y-63007200D02*
X139280952Y-63054819D01*
X139280952Y-63054819D02*
X139185714Y-63054819D01*
X139947619Y-62054819D02*
X140566666Y-62054819D01*
X140566666Y-62054819D02*
X140233333Y-62435771D01*
X140233333Y-62435771D02*
X140376190Y-62435771D01*
X140376190Y-62435771D02*
X140471428Y-62483390D01*
X140471428Y-62483390D02*
X140519047Y-62531009D01*
X140519047Y-62531009D02*
X140566666Y-62626247D01*
X140566666Y-62626247D02*
X140566666Y-62864342D01*
X140566666Y-62864342D02*
X140519047Y-62959580D01*
X140519047Y-62959580D02*
X140471428Y-63007200D01*
X140471428Y-63007200D02*
X140376190Y-63054819D01*
X140376190Y-63054819D02*
X140090476Y-63054819D01*
X140090476Y-63054819D02*
X139995238Y-63007200D01*
X139995238Y-63007200D02*
X139947619Y-62959580D01*
X131233333Y-67939580D02*
X131185714Y-67987200D01*
X131185714Y-67987200D02*
X131042857Y-68034819D01*
X131042857Y-68034819D02*
X130947619Y-68034819D01*
X130947619Y-68034819D02*
X130804762Y-67987200D01*
X130804762Y-67987200D02*
X130709524Y-67891961D01*
X130709524Y-67891961D02*
X130661905Y-67796723D01*
X130661905Y-67796723D02*
X130614286Y-67606247D01*
X130614286Y-67606247D02*
X130614286Y-67463390D01*
X130614286Y-67463390D02*
X130661905Y-67272914D01*
X130661905Y-67272914D02*
X130709524Y-67177676D01*
X130709524Y-67177676D02*
X130804762Y-67082438D01*
X130804762Y-67082438D02*
X130947619Y-67034819D01*
X130947619Y-67034819D02*
X131042857Y-67034819D01*
X131042857Y-67034819D02*
X131185714Y-67082438D01*
X131185714Y-67082438D02*
X131233333Y-67130057D01*
X132185714Y-68034819D02*
X131614286Y-68034819D01*
X131900000Y-68034819D02*
X131900000Y-67034819D01*
X131900000Y-67034819D02*
X131804762Y-67177676D01*
X131804762Y-67177676D02*
X131709524Y-67272914D01*
X131709524Y-67272914D02*
X131614286Y-67320533D01*
X128333333Y-53609580D02*
X128285714Y-53657200D01*
X128285714Y-53657200D02*
X128142857Y-53704819D01*
X128142857Y-53704819D02*
X128047619Y-53704819D01*
X128047619Y-53704819D02*
X127904762Y-53657200D01*
X127904762Y-53657200D02*
X127809524Y-53561961D01*
X127809524Y-53561961D02*
X127761905Y-53466723D01*
X127761905Y-53466723D02*
X127714286Y-53276247D01*
X127714286Y-53276247D02*
X127714286Y-53133390D01*
X127714286Y-53133390D02*
X127761905Y-52942914D01*
X127761905Y-52942914D02*
X127809524Y-52847676D01*
X127809524Y-52847676D02*
X127904762Y-52752438D01*
X127904762Y-52752438D02*
X128047619Y-52704819D01*
X128047619Y-52704819D02*
X128142857Y-52704819D01*
X128142857Y-52704819D02*
X128285714Y-52752438D01*
X128285714Y-52752438D02*
X128333333Y-52800057D01*
X128714286Y-52800057D02*
X128761905Y-52752438D01*
X128761905Y-52752438D02*
X128857143Y-52704819D01*
X128857143Y-52704819D02*
X129095238Y-52704819D01*
X129095238Y-52704819D02*
X129190476Y-52752438D01*
X129190476Y-52752438D02*
X129238095Y-52800057D01*
X129238095Y-52800057D02*
X129285714Y-52895295D01*
X129285714Y-52895295D02*
X129285714Y-52990533D01*
X129285714Y-52990533D02*
X129238095Y-53133390D01*
X129238095Y-53133390D02*
X128666667Y-53704819D01*
X128666667Y-53704819D02*
X129285714Y-53704819D01*
X123338095Y-67504819D02*
X123338095Y-68314342D01*
X123338095Y-68314342D02*
X123385714Y-68409580D01*
X123385714Y-68409580D02*
X123433333Y-68457200D01*
X123433333Y-68457200D02*
X123528571Y-68504819D01*
X123528571Y-68504819D02*
X123719047Y-68504819D01*
X123719047Y-68504819D02*
X123814285Y-68457200D01*
X123814285Y-68457200D02*
X123861904Y-68409580D01*
X123861904Y-68409580D02*
X123909523Y-68314342D01*
X123909523Y-68314342D02*
X123909523Y-67504819D01*
X124909523Y-68504819D02*
X124338095Y-68504819D01*
X124623809Y-68504819D02*
X124623809Y-67504819D01*
X124623809Y-67504819D02*
X124528571Y-67647676D01*
X124528571Y-67647676D02*
X124433333Y-67742914D01*
X124433333Y-67742914D02*
X124338095Y-67790533D01*
X169466666Y-69804819D02*
X169466666Y-70519104D01*
X169466666Y-70519104D02*
X169419047Y-70661961D01*
X169419047Y-70661961D02*
X169323809Y-70757200D01*
X169323809Y-70757200D02*
X169180952Y-70804819D01*
X169180952Y-70804819D02*
X169085714Y-70804819D01*
X170371428Y-70138152D02*
X170371428Y-70804819D01*
X170133333Y-69757200D02*
X169895238Y-70471485D01*
X169895238Y-70471485D02*
X170514285Y-70471485D01*
X126066666Y-73804819D02*
X126066666Y-74519104D01*
X126066666Y-74519104D02*
X126019047Y-74661961D01*
X126019047Y-74661961D02*
X125923809Y-74757200D01*
X125923809Y-74757200D02*
X125780952Y-74804819D01*
X125780952Y-74804819D02*
X125685714Y-74804819D01*
X126495238Y-73900057D02*
X126542857Y-73852438D01*
X126542857Y-73852438D02*
X126638095Y-73804819D01*
X126638095Y-73804819D02*
X126876190Y-73804819D01*
X126876190Y-73804819D02*
X126971428Y-73852438D01*
X126971428Y-73852438D02*
X127019047Y-73900057D01*
X127019047Y-73900057D02*
X127066666Y-73995295D01*
X127066666Y-73995295D02*
X127066666Y-74090533D01*
X127066666Y-74090533D02*
X127019047Y-74233390D01*
X127019047Y-74233390D02*
X126447619Y-74804819D01*
X126447619Y-74804819D02*
X127066666Y-74804819D01*
X155124819Y-47333333D02*
X155839104Y-47333333D01*
X155839104Y-47333333D02*
X155981961Y-47380952D01*
X155981961Y-47380952D02*
X156077200Y-47476190D01*
X156077200Y-47476190D02*
X156124819Y-47619047D01*
X156124819Y-47619047D02*
X156124819Y-47714285D01*
X156124819Y-46333333D02*
X156124819Y-46904761D01*
X156124819Y-46619047D02*
X155124819Y-46619047D01*
X155124819Y-46619047D02*
X155267676Y-46714285D01*
X155267676Y-46714285D02*
X155362914Y-46809523D01*
X155362914Y-46809523D02*
X155410533Y-46904761D01*
X170861905Y-55504819D02*
X170861905Y-54504819D01*
X170861905Y-54504819D02*
X171100000Y-54504819D01*
X171100000Y-54504819D02*
X171242857Y-54552438D01*
X171242857Y-54552438D02*
X171338095Y-54647676D01*
X171338095Y-54647676D02*
X171385714Y-54742914D01*
X171385714Y-54742914D02*
X171433333Y-54933390D01*
X171433333Y-54933390D02*
X171433333Y-55076247D01*
X171433333Y-55076247D02*
X171385714Y-55266723D01*
X171385714Y-55266723D02*
X171338095Y-55361961D01*
X171338095Y-55361961D02*
X171242857Y-55457200D01*
X171242857Y-55457200D02*
X171100000Y-55504819D01*
X171100000Y-55504819D02*
X170861905Y-55504819D01*
X172385714Y-55504819D02*
X171814286Y-55504819D01*
X172100000Y-55504819D02*
X172100000Y-54504819D01*
X172100000Y-54504819D02*
X172004762Y-54647676D01*
X172004762Y-54647676D02*
X171909524Y-54742914D01*
X171909524Y-54742914D02*
X171814286Y-54790533D01*
X137333333Y-57404819D02*
X137000000Y-56928628D01*
X136761905Y-57404819D02*
X136761905Y-56404819D01*
X136761905Y-56404819D02*
X137142857Y-56404819D01*
X137142857Y-56404819D02*
X137238095Y-56452438D01*
X137238095Y-56452438D02*
X137285714Y-56500057D01*
X137285714Y-56500057D02*
X137333333Y-56595295D01*
X137333333Y-56595295D02*
X137333333Y-56738152D01*
X137333333Y-56738152D02*
X137285714Y-56833390D01*
X137285714Y-56833390D02*
X137238095Y-56881009D01*
X137238095Y-56881009D02*
X137142857Y-56928628D01*
X137142857Y-56928628D02*
X136761905Y-56928628D01*
X137666667Y-56404819D02*
X138285714Y-56404819D01*
X138285714Y-56404819D02*
X137952381Y-56785771D01*
X137952381Y-56785771D02*
X138095238Y-56785771D01*
X138095238Y-56785771D02*
X138190476Y-56833390D01*
X138190476Y-56833390D02*
X138238095Y-56881009D01*
X138238095Y-56881009D02*
X138285714Y-56976247D01*
X138285714Y-56976247D02*
X138285714Y-57214342D01*
X138285714Y-57214342D02*
X138238095Y-57309580D01*
X138238095Y-57309580D02*
X138190476Y-57357200D01*
X138190476Y-57357200D02*
X138095238Y-57404819D01*
X138095238Y-57404819D02*
X137809524Y-57404819D01*
X137809524Y-57404819D02*
X137714286Y-57357200D01*
X137714286Y-57357200D02*
X137666667Y-57309580D01*
X120583333Y-69304819D02*
X120250000Y-68828628D01*
X120011905Y-69304819D02*
X120011905Y-68304819D01*
X120011905Y-68304819D02*
X120392857Y-68304819D01*
X120392857Y-68304819D02*
X120488095Y-68352438D01*
X120488095Y-68352438D02*
X120535714Y-68400057D01*
X120535714Y-68400057D02*
X120583333Y-68495295D01*
X120583333Y-68495295D02*
X120583333Y-68638152D01*
X120583333Y-68638152D02*
X120535714Y-68733390D01*
X120535714Y-68733390D02*
X120488095Y-68781009D01*
X120488095Y-68781009D02*
X120392857Y-68828628D01*
X120392857Y-68828628D02*
X120011905Y-68828628D01*
X121440476Y-68638152D02*
X121440476Y-69304819D01*
X121202381Y-68257200D02*
X120964286Y-68971485D01*
X120964286Y-68971485D02*
X121583333Y-68971485D01*
D14*
%TO.C,U2*%
X157740000Y-56720000D02*
X157740000Y-67000000D01*
X157740000Y-67000000D02*
X163040000Y-67000000D01*
X159390000Y-56720000D02*
X157740000Y-56720000D01*
X163040000Y-56720000D02*
X161390000Y-56720000D01*
X163040000Y-67000000D02*
X163040000Y-56720000D01*
X161390000Y-56720000D02*
G75*
G02*
X159390000Y-56720000I-1000000J0D01*
G01*
%TO.C,R2*%
X169480000Y-59580000D02*
X179620000Y-59580000D01*
X169480000Y-60060000D02*
X169480000Y-59580000D01*
X169480000Y-62940000D02*
X169480000Y-63420000D01*
X169480000Y-63420000D02*
X179620000Y-63420000D01*
X179620000Y-59580000D02*
X179620000Y-60060000D01*
X179620000Y-63420000D02*
X179620000Y-62940000D01*
%TO.C,C4*%
X168611252Y-65115000D02*
X168088748Y-65115000D01*
X168611252Y-66585000D02*
X168088748Y-66585000D01*
%TO.C,J5*%
X157605000Y-71050000D02*
X157605000Y-73710000D01*
X160205000Y-71050000D02*
X157605000Y-71050000D01*
X160205000Y-71050000D02*
X160205000Y-73710000D01*
X160205000Y-73710000D02*
X157605000Y-73710000D01*
X161475000Y-71050000D02*
X162805000Y-71050000D01*
X162805000Y-71050000D02*
X162805000Y-72380000D01*
%TO.C,C5*%
X164988748Y-54115000D02*
X165511252Y-54115000D01*
X164988748Y-55585000D02*
X165511252Y-55585000D01*
%TO.C,R1*%
X116527064Y-62565000D02*
X116072936Y-62565000D01*
X116527064Y-64035000D02*
X116072936Y-64035000D01*
%TO.C,C6*%
X157649000Y-53084000D02*
X157649000Y-52516000D01*
X157689000Y-53318000D02*
X157689000Y-52282000D01*
X157729000Y-53477000D02*
X157729000Y-52123000D01*
X157769000Y-53605000D02*
X157769000Y-51995000D01*
X157809000Y-53715000D02*
X157809000Y-51885000D01*
X157849000Y-53811000D02*
X157849000Y-51789000D01*
X157889000Y-53898000D02*
X157889000Y-51702000D01*
X157929000Y-53978000D02*
X157929000Y-51622000D01*
X157969000Y-51760000D02*
X157969000Y-51549000D01*
X157969000Y-54051000D02*
X157969000Y-53840000D01*
X158009000Y-51760000D02*
X158009000Y-51481000D01*
X158009000Y-54119000D02*
X158009000Y-53840000D01*
X158049000Y-51760000D02*
X158049000Y-51417000D01*
X158049000Y-54183000D02*
X158049000Y-53840000D01*
X158089000Y-51760000D02*
X158089000Y-51357000D01*
X158089000Y-54243000D02*
X158089000Y-53840000D01*
X158129000Y-51760000D02*
X158129000Y-51300000D01*
X158129000Y-54300000D02*
X158129000Y-53840000D01*
X158169000Y-51760000D02*
X158169000Y-51246000D01*
X158169000Y-54354000D02*
X158169000Y-53840000D01*
X158209000Y-51760000D02*
X158209000Y-51195000D01*
X158209000Y-54405000D02*
X158209000Y-53840000D01*
X158249000Y-51760000D02*
X158249000Y-51147000D01*
X158249000Y-54453000D02*
X158249000Y-53840000D01*
X158289000Y-51760000D02*
X158289000Y-51101000D01*
X158289000Y-54499000D02*
X158289000Y-53840000D01*
X158329000Y-51760000D02*
X158329000Y-51057000D01*
X158329000Y-54543000D02*
X158329000Y-53840000D01*
X158369000Y-51760000D02*
X158369000Y-51015000D01*
X158369000Y-54585000D02*
X158369000Y-53840000D01*
X158409000Y-51760000D02*
X158409000Y-50974000D01*
X158409000Y-54626000D02*
X158409000Y-53840000D01*
X158449000Y-51760000D02*
X158449000Y-50936000D01*
X158449000Y-54664000D02*
X158449000Y-53840000D01*
X158489000Y-51760000D02*
X158489000Y-50899000D01*
X158489000Y-54701000D02*
X158489000Y-53840000D01*
X158529000Y-51760000D02*
X158529000Y-50863000D01*
X158529000Y-54737000D02*
X158529000Y-53840000D01*
X158569000Y-51760000D02*
X158569000Y-50829000D01*
X158569000Y-54771000D02*
X158569000Y-53840000D01*
X158609000Y-51760000D02*
X158609000Y-50796000D01*
X158609000Y-54804000D02*
X158609000Y-53840000D01*
X158649000Y-51760000D02*
X158649000Y-50765000D01*
X158649000Y-54835000D02*
X158649000Y-53840000D01*
X158689000Y-51760000D02*
X158689000Y-50735000D01*
X158689000Y-54865000D02*
X158689000Y-53840000D01*
X158729000Y-51760000D02*
X158729000Y-50705000D01*
X158729000Y-54895000D02*
X158729000Y-53840000D01*
X158769000Y-51760000D02*
X158769000Y-50678000D01*
X158769000Y-54922000D02*
X158769000Y-53840000D01*
X158809000Y-51760000D02*
X158809000Y-50651000D01*
X158809000Y-54949000D02*
X158809000Y-53840000D01*
X158849000Y-51760000D02*
X158849000Y-50625000D01*
X158849000Y-54975000D02*
X158849000Y-53840000D01*
X158889000Y-51760000D02*
X158889000Y-50600000D01*
X158889000Y-55000000D02*
X158889000Y-53840000D01*
X158929000Y-51760000D02*
X158929000Y-50576000D01*
X158929000Y-55024000D02*
X158929000Y-53840000D01*
X158969000Y-51760000D02*
X158969000Y-50553000D01*
X158969000Y-55047000D02*
X158969000Y-53840000D01*
X159009000Y-51760000D02*
X159009000Y-50532000D01*
X159009000Y-55068000D02*
X159009000Y-53840000D01*
X159049000Y-51760000D02*
X159049000Y-50510000D01*
X159049000Y-55090000D02*
X159049000Y-53840000D01*
X159089000Y-51760000D02*
X159089000Y-50490000D01*
X159089000Y-55110000D02*
X159089000Y-53840000D01*
X159129000Y-51760000D02*
X159129000Y-50471000D01*
X159129000Y-55129000D02*
X159129000Y-53840000D01*
X159169000Y-51760000D02*
X159169000Y-50452000D01*
X159169000Y-55148000D02*
X159169000Y-53840000D01*
X159209000Y-51760000D02*
X159209000Y-50435000D01*
X159209000Y-55165000D02*
X159209000Y-53840000D01*
X159249000Y-51760000D02*
X159249000Y-50418000D01*
X159249000Y-55182000D02*
X159249000Y-53840000D01*
X159289000Y-51760000D02*
X159289000Y-50402000D01*
X159289000Y-55198000D02*
X159289000Y-53840000D01*
X159329000Y-51760000D02*
X159329000Y-50386000D01*
X159329000Y-55214000D02*
X159329000Y-53840000D01*
X159369000Y-51760000D02*
X159369000Y-50372000D01*
X159369000Y-55228000D02*
X159369000Y-53840000D01*
X159409000Y-51760000D02*
X159409000Y-50358000D01*
X159409000Y-55242000D02*
X159409000Y-53840000D01*
X159449000Y-51760000D02*
X159449000Y-50345000D01*
X159449000Y-55255000D02*
X159449000Y-53840000D01*
X159489000Y-51760000D02*
X159489000Y-50332000D01*
X159489000Y-55268000D02*
X159489000Y-53840000D01*
X159529000Y-51760000D02*
X159529000Y-50320000D01*
X159529000Y-55280000D02*
X159529000Y-53840000D01*
X159570000Y-51760000D02*
X159570000Y-50309000D01*
X159570000Y-55291000D02*
X159570000Y-53840000D01*
X159610000Y-51760000D02*
X159610000Y-50299000D01*
X159610000Y-55301000D02*
X159610000Y-53840000D01*
X159650000Y-51760000D02*
X159650000Y-50289000D01*
X159650000Y-55311000D02*
X159650000Y-53840000D01*
X159690000Y-51760000D02*
X159690000Y-50280000D01*
X159690000Y-55320000D02*
X159690000Y-53840000D01*
X159730000Y-51760000D02*
X159730000Y-50272000D01*
X159730000Y-55328000D02*
X159730000Y-53840000D01*
X159770000Y-51760000D02*
X159770000Y-50264000D01*
X159770000Y-55336000D02*
X159770000Y-53840000D01*
X159810000Y-51760000D02*
X159810000Y-50257000D01*
X159810000Y-55343000D02*
X159810000Y-53840000D01*
X159850000Y-51760000D02*
X159850000Y-50250000D01*
X159850000Y-55350000D02*
X159850000Y-53840000D01*
X159890000Y-51760000D02*
X159890000Y-50244000D01*
X159890000Y-55356000D02*
X159890000Y-53840000D01*
X159930000Y-51760000D02*
X159930000Y-50239000D01*
X159930000Y-55361000D02*
X159930000Y-53840000D01*
X159970000Y-51760000D02*
X159970000Y-50235000D01*
X159970000Y-55365000D02*
X159970000Y-53840000D01*
X160010000Y-51760000D02*
X160010000Y-50231000D01*
X160010000Y-55369000D02*
X160010000Y-53840000D01*
X160050000Y-55373000D02*
X160050000Y-50227000D01*
X160090000Y-55376000D02*
X160090000Y-50224000D01*
X160130000Y-55378000D02*
X160130000Y-50222000D01*
X160170000Y-55379000D02*
X160170000Y-50221000D01*
X160210000Y-55380000D02*
X160210000Y-50220000D01*
X160250000Y-55380000D02*
X160250000Y-50220000D01*
X162804775Y-54525000D02*
X162804775Y-54025000D01*
X163054775Y-54275000D02*
X162554775Y-54275000D01*
X162870000Y-52800000D02*
G75*
G02*
X157630000Y-52800000I-2620000J0D01*
G01*
X157630000Y-52800000D02*
G75*
G02*
X162870000Y-52800000I2620000J0D01*
G01*
%TO.C,C3*%
X121249000Y-53284000D02*
X121249000Y-52716000D01*
X121289000Y-53518000D02*
X121289000Y-52482000D01*
X121329000Y-53677000D02*
X121329000Y-52323000D01*
X121369000Y-53805000D02*
X121369000Y-52195000D01*
X121409000Y-53915000D02*
X121409000Y-52085000D01*
X121449000Y-54011000D02*
X121449000Y-51989000D01*
X121489000Y-54098000D02*
X121489000Y-51902000D01*
X121529000Y-54178000D02*
X121529000Y-51822000D01*
X121569000Y-51960000D02*
X121569000Y-51749000D01*
X121569000Y-54251000D02*
X121569000Y-54040000D01*
X121609000Y-51960000D02*
X121609000Y-51681000D01*
X121609000Y-54319000D02*
X121609000Y-54040000D01*
X121649000Y-51960000D02*
X121649000Y-51617000D01*
X121649000Y-54383000D02*
X121649000Y-54040000D01*
X121689000Y-51960000D02*
X121689000Y-51557000D01*
X121689000Y-54443000D02*
X121689000Y-54040000D01*
X121729000Y-51960000D02*
X121729000Y-51500000D01*
X121729000Y-54500000D02*
X121729000Y-54040000D01*
X121769000Y-51960000D02*
X121769000Y-51446000D01*
X121769000Y-54554000D02*
X121769000Y-54040000D01*
X121809000Y-51960000D02*
X121809000Y-51395000D01*
X121809000Y-54605000D02*
X121809000Y-54040000D01*
X121849000Y-51960000D02*
X121849000Y-51347000D01*
X121849000Y-54653000D02*
X121849000Y-54040000D01*
X121889000Y-51960000D02*
X121889000Y-51301000D01*
X121889000Y-54699000D02*
X121889000Y-54040000D01*
X121929000Y-51960000D02*
X121929000Y-51257000D01*
X121929000Y-54743000D02*
X121929000Y-54040000D01*
X121969000Y-51960000D02*
X121969000Y-51215000D01*
X121969000Y-54785000D02*
X121969000Y-54040000D01*
X122009000Y-51960000D02*
X122009000Y-51174000D01*
X122009000Y-54826000D02*
X122009000Y-54040000D01*
X122049000Y-51960000D02*
X122049000Y-51136000D01*
X122049000Y-54864000D02*
X122049000Y-54040000D01*
X122089000Y-51960000D02*
X122089000Y-51099000D01*
X122089000Y-54901000D02*
X122089000Y-54040000D01*
X122129000Y-51960000D02*
X122129000Y-51063000D01*
X122129000Y-54937000D02*
X122129000Y-54040000D01*
X122169000Y-51960000D02*
X122169000Y-51029000D01*
X122169000Y-54971000D02*
X122169000Y-54040000D01*
X122209000Y-51960000D02*
X122209000Y-50996000D01*
X122209000Y-55004000D02*
X122209000Y-54040000D01*
X122249000Y-51960000D02*
X122249000Y-50965000D01*
X122249000Y-55035000D02*
X122249000Y-54040000D01*
X122289000Y-51960000D02*
X122289000Y-50935000D01*
X122289000Y-55065000D02*
X122289000Y-54040000D01*
X122329000Y-51960000D02*
X122329000Y-50905000D01*
X122329000Y-55095000D02*
X122329000Y-54040000D01*
X122369000Y-51960000D02*
X122369000Y-50878000D01*
X122369000Y-55122000D02*
X122369000Y-54040000D01*
X122409000Y-51960000D02*
X122409000Y-50851000D01*
X122409000Y-55149000D02*
X122409000Y-54040000D01*
X122449000Y-51960000D02*
X122449000Y-50825000D01*
X122449000Y-55175000D02*
X122449000Y-54040000D01*
X122489000Y-51960000D02*
X122489000Y-50800000D01*
X122489000Y-55200000D02*
X122489000Y-54040000D01*
X122529000Y-51960000D02*
X122529000Y-50776000D01*
X122529000Y-55224000D02*
X122529000Y-54040000D01*
X122569000Y-51960000D02*
X122569000Y-50753000D01*
X122569000Y-55247000D02*
X122569000Y-54040000D01*
X122609000Y-51960000D02*
X122609000Y-50732000D01*
X122609000Y-55268000D02*
X122609000Y-54040000D01*
X122649000Y-51960000D02*
X122649000Y-50710000D01*
X122649000Y-55290000D02*
X122649000Y-54040000D01*
X122689000Y-51960000D02*
X122689000Y-50690000D01*
X122689000Y-55310000D02*
X122689000Y-54040000D01*
X122729000Y-51960000D02*
X122729000Y-50671000D01*
X122729000Y-55329000D02*
X122729000Y-54040000D01*
X122769000Y-51960000D02*
X122769000Y-50652000D01*
X122769000Y-55348000D02*
X122769000Y-54040000D01*
X122809000Y-51960000D02*
X122809000Y-50635000D01*
X122809000Y-55365000D02*
X122809000Y-54040000D01*
X122849000Y-51960000D02*
X122849000Y-50618000D01*
X122849000Y-55382000D02*
X122849000Y-54040000D01*
X122889000Y-51960000D02*
X122889000Y-50602000D01*
X122889000Y-55398000D02*
X122889000Y-54040000D01*
X122929000Y-51960000D02*
X122929000Y-50586000D01*
X122929000Y-55414000D02*
X122929000Y-54040000D01*
X122969000Y-51960000D02*
X122969000Y-50572000D01*
X122969000Y-55428000D02*
X122969000Y-54040000D01*
X123009000Y-51960000D02*
X123009000Y-50558000D01*
X123009000Y-55442000D02*
X123009000Y-54040000D01*
X123049000Y-51960000D02*
X123049000Y-50545000D01*
X123049000Y-55455000D02*
X123049000Y-54040000D01*
X123089000Y-51960000D02*
X123089000Y-50532000D01*
X123089000Y-55468000D02*
X123089000Y-54040000D01*
X123129000Y-51960000D02*
X123129000Y-50520000D01*
X123129000Y-55480000D02*
X123129000Y-54040000D01*
X123170000Y-51960000D02*
X123170000Y-50509000D01*
X123170000Y-55491000D02*
X123170000Y-54040000D01*
X123210000Y-51960000D02*
X123210000Y-50499000D01*
X123210000Y-55501000D02*
X123210000Y-54040000D01*
X123250000Y-51960000D02*
X123250000Y-50489000D01*
X123250000Y-55511000D02*
X123250000Y-54040000D01*
X123290000Y-51960000D02*
X123290000Y-50480000D01*
X123290000Y-55520000D02*
X123290000Y-54040000D01*
X123330000Y-51960000D02*
X123330000Y-50472000D01*
X123330000Y-55528000D02*
X123330000Y-54040000D01*
X123370000Y-51960000D02*
X123370000Y-50464000D01*
X123370000Y-55536000D02*
X123370000Y-54040000D01*
X123410000Y-51960000D02*
X123410000Y-50457000D01*
X123410000Y-55543000D02*
X123410000Y-54040000D01*
X123450000Y-51960000D02*
X123450000Y-50450000D01*
X123450000Y-55550000D02*
X123450000Y-54040000D01*
X123490000Y-51960000D02*
X123490000Y-50444000D01*
X123490000Y-55556000D02*
X123490000Y-54040000D01*
X123530000Y-51960000D02*
X123530000Y-50439000D01*
X123530000Y-55561000D02*
X123530000Y-54040000D01*
X123570000Y-51960000D02*
X123570000Y-50435000D01*
X123570000Y-55565000D02*
X123570000Y-54040000D01*
X123610000Y-51960000D02*
X123610000Y-50431000D01*
X123610000Y-55569000D02*
X123610000Y-54040000D01*
X123650000Y-55573000D02*
X123650000Y-50427000D01*
X123690000Y-55576000D02*
X123690000Y-50424000D01*
X123730000Y-55578000D02*
X123730000Y-50422000D01*
X123770000Y-55579000D02*
X123770000Y-50421000D01*
X123810000Y-55580000D02*
X123810000Y-50420000D01*
X123850000Y-55580000D02*
X123850000Y-50420000D01*
X126404775Y-54725000D02*
X126404775Y-54225000D01*
X126654775Y-54475000D02*
X126154775Y-54475000D01*
X126470000Y-53000000D02*
G75*
G02*
X121230000Y-53000000I-2620000J0D01*
G01*
X121230000Y-53000000D02*
G75*
G02*
X126470000Y-53000000I2620000J0D01*
G01*
%TO.C,R5*%
X152727064Y-62415000D02*
X152272936Y-62415000D01*
X152727064Y-63885000D02*
X152272936Y-63885000D01*
%TO.C,J3*%
X135265000Y-75360000D02*
X135265000Y-64040000D01*
X136211000Y-70788000D02*
X136606000Y-70392000D01*
X136477000Y-71054000D02*
X136857000Y-70674000D01*
X138872000Y-68126000D02*
X139252000Y-67746000D01*
X139123000Y-68408000D02*
X139518000Y-68012000D01*
X141291000Y-70788000D02*
X141398000Y-70681000D01*
X141557000Y-71054000D02*
X141664000Y-70947000D01*
X144227000Y-67853000D02*
X144333000Y-67746000D01*
X144493000Y-68119000D02*
X144599000Y-68012000D01*
X145545000Y-64040000D02*
X135265000Y-64040000D01*
X145545000Y-64600000D02*
X135265000Y-64600000D01*
X145545000Y-67100000D02*
X135265000Y-67100000D01*
X145545000Y-73300000D02*
X135265000Y-73300000D01*
X145545000Y-75360000D02*
X135265000Y-75360000D01*
X145545000Y-75360000D02*
X145545000Y-64040000D01*
X145785000Y-63800000D02*
X145285000Y-63800000D01*
X145785000Y-64540000D02*
X145785000Y-63800000D01*
X140045000Y-69400000D02*
G75*
G02*
X135685000Y-69400000I-2180000J0D01*
G01*
X135685000Y-69400000D02*
G75*
G02*
X140045000Y-69400000I2180000J0D01*
G01*
X145125000Y-69400000D02*
G75*
G02*
X140765000Y-69400000I-2180000J0D01*
G01*
X140765000Y-69400000D02*
G75*
G02*
X145125000Y-69400000I2180000J0D01*
G01*
%TO.C,C1*%
X131661252Y-65165000D02*
X131138748Y-65165000D01*
X131661252Y-66635000D02*
X131138748Y-66635000D01*
%TO.C,C2*%
X128711252Y-54365000D02*
X128188748Y-54365000D01*
X128711252Y-55835000D02*
X128188748Y-55835000D01*
%TO.C,U1*%
X121040000Y-56850000D02*
X121040000Y-67130000D01*
X121040000Y-67130000D02*
X126340000Y-67130000D01*
X122690000Y-56850000D02*
X121040000Y-56850000D01*
X126340000Y-56850000D02*
X124690000Y-56850000D01*
X126340000Y-67130000D02*
X126340000Y-56850000D01*
X124690000Y-56850000D02*
G75*
G02*
X122690000Y-56850000I-1000000J0D01*
G01*
%TO.C,J4*%
X171165000Y-75310000D02*
X171165000Y-76050000D01*
X171165000Y-76050000D02*
X171665000Y-76050000D01*
X171405000Y-64490000D02*
X171405000Y-75810000D01*
X171405000Y-64490000D02*
X181685000Y-64490000D01*
X171405000Y-66550000D02*
X181685000Y-66550000D01*
X171405000Y-72750000D02*
X181685000Y-72750000D01*
X171405000Y-75250000D02*
X181685000Y-75250000D01*
X171405000Y-75810000D02*
X181685000Y-75810000D01*
X172457000Y-71731000D02*
X172351000Y-71838000D01*
X172723000Y-71997000D02*
X172617000Y-72104000D01*
X175393000Y-68796000D02*
X175286000Y-68903000D01*
X175659000Y-69062000D02*
X175552000Y-69169000D01*
X177827000Y-71442000D02*
X177432000Y-71838000D01*
X178078000Y-71724000D02*
X177698000Y-72104000D01*
X180473000Y-68796000D02*
X180093000Y-69176000D01*
X180739000Y-69062000D02*
X180344000Y-69458000D01*
X181685000Y-64490000D02*
X181685000Y-75810000D01*
X176185000Y-70450000D02*
G75*
G02*
X171825000Y-70450000I-2180000J0D01*
G01*
X171825000Y-70450000D02*
G75*
G02*
X176185000Y-70450000I2180000J0D01*
G01*
X181265000Y-70450000D02*
G75*
G02*
X176905000Y-70450000I-2180000J0D01*
G01*
X176905000Y-70450000D02*
G75*
G02*
X181265000Y-70450000I2180000J0D01*
G01*
%TO.C,J2*%
X119855000Y-74670000D02*
X119855000Y-77330000D01*
X122455000Y-74670000D02*
X119855000Y-74670000D01*
X122455000Y-74670000D02*
X122455000Y-77330000D01*
X122455000Y-77330000D02*
X119855000Y-77330000D01*
X123725000Y-74670000D02*
X125055000Y-74670000D01*
X125055000Y-74670000D02*
X125055000Y-76000000D01*
%TO.C,J1*%
X141850000Y-45670000D02*
X141850000Y-48330000D01*
X152070000Y-45670000D02*
X141850000Y-45670000D01*
X152070000Y-45670000D02*
X152070000Y-48330000D01*
X152070000Y-48330000D02*
X141850000Y-48330000D01*
X153340000Y-45670000D02*
X154670000Y-45670000D01*
X154670000Y-45670000D02*
X154670000Y-47000000D01*
%TO.C,D1*%
X168980000Y-57350000D02*
X169630000Y-57350000D01*
X169630000Y-56230000D02*
X169630000Y-58470000D01*
X169630000Y-58470000D02*
X173870000Y-58470000D01*
X173030000Y-58470000D02*
X173030000Y-56230000D01*
X173150000Y-58470000D02*
X173150000Y-56230000D01*
X173270000Y-58470000D02*
X173270000Y-56230000D01*
X173870000Y-56230000D02*
X169630000Y-56230000D01*
X173870000Y-58470000D02*
X173870000Y-56230000D01*
X174520000Y-57350000D02*
X173870000Y-57350000D01*
%TO.C,R3*%
X132780000Y-58280000D02*
X142920000Y-58280000D01*
X132780000Y-58760000D02*
X132780000Y-58280000D01*
X132780000Y-61640000D02*
X132780000Y-62120000D01*
X132780000Y-62120000D02*
X142920000Y-62120000D01*
X142920000Y-58280000D02*
X142920000Y-58760000D01*
X142920000Y-62120000D02*
X142920000Y-61640000D01*
%TO.C,R4*%
X117030000Y-69680000D02*
X127170000Y-69680000D01*
X117030000Y-70160000D02*
X117030000Y-69680000D01*
X117030000Y-73040000D02*
X117030000Y-73520000D01*
X117030000Y-73520000D02*
X127170000Y-73520000D01*
X127170000Y-69680000D02*
X127170000Y-70160000D01*
X127170000Y-73520000D02*
X127170000Y-73040000D01*
%TD*%
G36*
X149843258Y-49819685D02*
G01*
X149889013Y-49872489D01*
X149900219Y-49923781D01*
X149949781Y-77975781D01*
X149930215Y-78042855D01*
X149877492Y-78088703D01*
X149825781Y-78100000D01*
X147824000Y-78100000D01*
X147756961Y-78080315D01*
X147711206Y-78027511D01*
X147700000Y-77976000D01*
X147700000Y-49924000D01*
X147719685Y-49856961D01*
X147772489Y-49811206D01*
X147824000Y-49800000D01*
X149776219Y-49800000D01*
X149843258Y-49819685D01*
G37*
M02*
