M48
; DRILL file {KiCad 8.0.6} date 2024-10-18T13:49:27-0300
; FORMAT={-:-/ absolute / inch / decimal}
; #@! TF.CreationDate,2024-10-18T13:49:27-03:00
; #@! TF.GenerationSoftware,Kicad,Pcbnew,8.0.6
; #@! TF.FileFunction,Plated,1,2,PTH
FMAT,2
INCH
; #@! TA.AperFunction,Plated,PTH,ViaDrill
T1C0.0118
; #@! TA.AperFunction,Plated,PTH,ComponentDrill
T2C0.0315
; #@! TA.AperFunction,Plated,PTH,ComponentDrill
T3C0.0394
; #@! TA.AperFunction,Plated,PTH,ComponentDrill
T4C0.0472
; #@! TA.AperFunction,Plated,PTH,ComponentDrill
T5C0.0512
%
G90
G05
T1
X5.1437Y-2.1693
X5.2126Y-2.6535
X6.6654Y-2.6476
T2
X4.7197Y-2.2906
X4.7197Y-2.3906
X4.7197Y-2.4906
X4.7197Y-2.5906
X4.8268Y-2.0866
X4.9252Y-2.0866
X5.0197Y-2.2906
X5.0197Y-2.3906
X5.0197Y-2.4906
X5.0197Y-2.5906
X6.1646Y-2.2854
X6.1646Y-2.3854
X6.1646Y-2.4854
X6.1646Y-2.5854
X6.2598Y-2.0787
X6.3583Y-2.0787
X6.4646Y-2.2854
X6.4646Y-2.3854
X6.4646Y-2.4854
X6.4646Y-2.5854
X6.6118Y-2.2579
X6.9118Y-2.2579
T3
X4.7711Y-2.9921
X4.8711Y-2.9921
X5.637Y-1.8504
X5.737Y-1.8504
X5.837Y-1.8504
X5.937Y-1.8504
X6.037Y-1.8504
X6.2573Y-2.8496
X6.3573Y-2.8496
T4
X4.5571Y-2.8189
X5.0571Y-2.8189
X5.1772Y-2.3701
X5.6772Y-2.3701
X6.622Y-2.4213
X7.122Y-2.4213
T5
X5.4278Y-2.7323
X5.6278Y-2.7323
X6.8506Y-2.7736
X7.0506Y-2.7736
M30
